<?xml version="1.0" encoding="UTF-8"?>
<svg id="Layer_1" xmlns="http://www.w3.org/2000/svg" version="1.1" viewBox="0 0 3255.43 1656.49">
  <!-- Generator: Adobe Illustrator 30.0.0, SVG Export Plug-In . SVG Version: 2.1.1 Build 123)  -->
  <defs>
    <style>
      .st0 {
        fill: teal;
      }
    </style>
  </defs>
  <g>
    <path d="M2496.22,772.97c9.21,9.57,45.75-45.23,51.33-50.01,7.27-6.24,10.05-1.65,12.76,5.39,11.86,30.82,6.64,93.58-20.01,116.37-26.4,22.58-60.05-7.66-54.31-36.91,8.73,1.46,5.99,14.11,11.35,22.42,9.71,15.04,28.38,17.66,40.89,4.23,17.54-18.83,20.13-64.67,17.37-89.11-.35-3.11-3.37-17.98-8.29-12.04-8.06,13.6-28.65,47.95-45.97,47.99-4.54.01-10.68-4.49-11.18-4.16s-.14,7.15-9.24,6.12c-20.26-2.29-15.48-54.41-22.58-67.6-9.75,9.43-17.44,21.51-23.91,33.43-3.96,7.29-12.3,30.77-15.09,34.05-1.69,1.99-15.06,8.44-18.18,8.26-10.4-.62-16.28-19.14-17.34-27.85-1.1-9.06.99-51.86,11.07-54.03,10.99,3.23.92,18.03-.52,26.12-2.3,12.94-3.23,24.69.48,37.37,3.5,12,7.62,16.69,17.01,4.68,2.43-8.13,6.04-64.07,8.79-65.93,2.14-1.45,8.66-.44,9.84,3.17,2.68,8.21-6.83,20.57-2.88,29.38,9.69-12.76,15.7-29.09,30.83-36.96,20.34-1.96,10.73,58.51,22.46,69.78l8.96-4.36c-3.51-7.75.05-18.76,3.27-26.41,6.21-14.79,38.07-58.3,55.14-57.3,9.94.58,17.07,17.36,10.35,24.5-10.82,11.51-.79-21.85-16.48-14.44-12.65,5.97-54.28,65.17-45.91,73.86Z"/>
    <path d="M1867.53,772.97c9.21,9.57,45.75-45.23,51.33-50.01,9.77-8.38,13.35,5.08,15.31,13.07,7.58,30.89,3.34,86.54-22.56,108.68-26.49,22.65-59.95-7.74-54.31-36.9,8.72,1.45,5.99,14.11,11.35,22.41,9.71,15.04,28.38,17.66,40.89,4.23,17.54-18.83,20.13-64.67,17.37-89.11-.35-3.11-3.37-17.98-8.29-12.04-8.06,13.6-28.65,47.95-45.97,47.99-4.54.01-10.68-4.49-11.18-4.16s-.13,7.14-9.24,6.12c-19.8-2.21-15.65-54.48-22.58-67.6-9.7,9.44-17.51,21.49-23.91,33.43-4.27,7.96-11.01,28.73-14.17,32.93-5.29,7.04-21.06,13.08-28.21,4-12.7-16.13-11.33-61.09,2.82-76.51,10.36-2.22.14,21.97-.52,26.12-2.11,13.31-3.34,24.29.48,37.38,3.5,12,7.62,16.69,17.01,4.68,2.43-8.13,6.04-64.07,8.79-65.93,2.14-1.45,8.66-.44,9.84,3.17,2.68,8.21-6.83,20.57-2.88,29.38,9.69-12.76,15.7-29.09,30.83-36.96,17.19-1.66,14.36,47.28,17.88,59.94,3.18,11.42,3.19,11.34,13.55,5.47-3.75-8.7.73-20.82,4.56-29.21,6.47-14.16,37.38-55.46,53.85-54.5,9.94.58,17.07,17.36,10.35,24.5-10.82,11.51-.79-21.85-16.48-14.44-12.8,6.04-54.36,65.09-45.91,73.86Z"/>
    <path d="M1118.01,660.34c-14.89-2.69-21.79-7.8-35.84,2.04-23.19,16.24-44.78,62.67-41.43,90.62,9.71,80.97,100.27-10.88,93.39-52.39-1.7-3.69-2.5-3.38-5.95-2.52-11.66,2.92-33.51,23.82-44.4,25.39-3.81.55-6.43-.2-6.7-4.72,8.47-9.75,20.33-16.13,32.02-21.25,12.21-5.35,34.39-17.63,35.39,4.98.6,13.65-7.1,39.22-8.02,55.16-.51,8.97-.88,21.96-.02,30.72.8,8.2,1.48,10.47,10.24,9.21v8.16c-28.79,2.57-20.04-37.24-18.45-55.28-11.99,13.92-20.1,31.09-38.29,38.48-44.57,18.09-61.46-16.42-57.9-55.85,2.56-28.38,29.5-81.95,60.5-86.93,11.7-1.88,28.98-1.57,25.47,14.19Z"/>
    <path d="M1486.64,680.82c1.13-7.28-3.66-21.45-11.38-22.59-9.86-1.51-13.29,9.26-15.82,16.91-5.49,16.66-4.79,33.67-7.61,50.73l20.47,1.03,4.08,11.26c-6.04-.04-6.2-6.23-13.25-6.3-3.78-.04-10.69,2.88-12.35,6.3-2.99,6.18,3.15,34.87,3.25,44.04.1,8.5-1.88,9.98-10.4,9.21l-2.08-51.2c-16.13,5.15-18.47,15.7-27.6,26.65-37.54,45.02-77.61,14.27-42.05-42.05,4.96-7.86,33.35-44.38,41.68-25.09,8.61,19.93-19.39,59.19-43.67,46.63-11.96,34.22,3.52,43.71,30.73,21.53,15.57-12.69,20.48-31.5,41.99-37.88,2.94-20.58,2.64-77.02,30.89-79.87,24.04-2.42,20.82,39.92,13.12,30.68ZM1376.06,740.2c15.17,3.3,29.8-18.36,31.38-31.14.33-2.69,2.32-3-1.74-5.71-6.5-.99-32.92,33.72-29.64,36.86Z"/>
    <path d="M2233.9,770.71c-1.75-24.35,24.45-79.3,53.54-72.67,7.66,1.75,17.99,7.52,9.07,15.55-4.36.83-11.05-16.15-27.53-2.98-9.11,7.27-26.5,41.65-26.37,53.19.26,23.98,30.77,10.76,41.64.99,1.28-1.16,13.75-20.58,15.38-11.21,1.5,8.67-29.82,32.47-40.16,33.6-16.4,1.79-17.28-8.71-22.53-9.64-2.4-.42-6.19,1.88-9.82,1.58-16.04-1.35-12.7-28.59-14.53-28.68-8.92,13.11-19.5,25.89-33.15,34.45-5.73,3.59-13.15,10.36-20.3,4.67-15.07-12.01,18.38-58.27,27.8-68.85,6.43-7.22,31.91-32.48,41.21-20.61,6.03,7.35-.8,15.91-1.24,20.65-.22,2.4,1.37,5.3,1.07,8.06-.95,8.73-9.53,39.14-.07,43.24l6-1.34ZM2221.78,703.35c-17.64,8.55-33.96,29.93-44.65,46.46-3.81,5.89-25.85,40.27-4.55,32.32,9.62-3.59,40.25-41.91,44.06-52.2,1.33-3.59,6.25-25.12,5.14-26.58Z"/>
    <path d="M1285.75,770.71c-1.75-24.35,24.45-79.3,53.54-72.67,7.66,1.75,17.99,7.52,9.07,15.55-4.37.83-11.05-16.15-27.53-2.98-10.51,8.39-38.64,60.09-19.15,66.07,10.59,3.25,26.66-4.92,34.42-11.9,1.28-1.16,13.75-20.58,15.38-11.21,1.5,8.67-29.82,32.47-40.16,33.6-16.4,1.79-17.28-8.71-22.53-9.64-2.4-.42-6.19,1.88-9.82,1.58-16.04-1.35-12.7-28.6-14.53-28.68-6.21,11.06-40.02,49.85-53.45,39.12-15.06-12.03,18.37-58.25,27.8-68.85,6.43-7.22,31.91-32.48,41.21-20.61,6.03,7.35-.8,15.91-1.24,20.65-.22,2.4,1.37,5.3,1.07,8.06-.95,8.73-9.53,39.14-.07,43.24l6-1.34ZM1273.63,703.35c-17.74,8.58-33.85,29.9-44.65,46.46-3.93,6.02-26.11,40.3-4.55,32.32,9.6-3.55,40.26-41.93,44.06-52.2,1.33-3.59,6.25-25.12,5.14-26.58Z"/>
    <path d="M3069.11,697.71c9.32,23.22-15.56,59.5-42.51,48.64-11.38,32.68,1.92,44.03,29.63,22.48,5.99-4.65,20.75-20.86,25.03-27.01.34-.48-.06-7.53,1.83-11.65,5.38-11.76,27.56-34.37,40.94-34.9,6.75-.26,16.76,3.88,15.18,12.15-21.02-7.77-42.97,9.33-47.25,29.43,12.18,7.2,26.34-.57,38.97,8.56,24.68,17.84-25.62,55.87-42.93,36.81-5.57-6.13-4.83-11.9,1.08-17.44,5.63-2.73,1.91,11.16,3.03,12.28,10.97,4.86,50.22-13.03,34.76-25.52-9.42-7.61-33.01,1.09-44.97-7.25-9.78,51.05-93.73,64.27-60.86-6.57,5.1-11,33.39-54.79,48.07-40.03ZM3032.75,740.2c15.17,3.3,29.8-18.36,31.38-31.14.33-2.69,2.32-3-1.74-5.71-6.5-.99-32.92,33.72-29.64,36.86Z"/>
    <path d="M2707.15,680.82c-3.07-2.11,2.07-18.18-2.37-22.22-13.25-8.35-53.92,28.13-62.17,38.59-10.83,13.72-14.75,20.49,4.23,26.53,14.96,4.76,51.94,6.21,61.28,18.59,20.95,27.76-38.13,69.51-65.57,43.05-7.97-7.68-10.39-16.08-1.93-24.64l5.63,17.89c16.19,14.45,62.49-7.15,56.53-28.74-3.91-14.15-61.17-13.07-74.53-23.92-9.63-7.82-2.97-22.36,2.05-30.85,11-18.59,56.14-55.07,78.4-45.49,15.75,6.79,8.38,38.01-1.52,31.21Z"/>
    <path d="M1576.74,775.02c22.33-5.42,47.44-17.08,69.68-5.18l12.2,9.27c-.17-6.73-3.44-12.79-4.05-19.46-.69-7.58,1.82-52.65,13.26-50.14,6.82,6.43-1.17,17.67-2.51,26.12-1.76,11.05-3.88,38.61,4.06,47.12,3.89,4.17,7.13-.09,9.6-.65,10.09-2.31-.47,15.96-13.01,7.1-2.89-2.04-2.08-6.13-5.25-5.96l-1.93,7.29-6.28.9c.08-5.15,1.2-8.78-3.26-12.12-11.73-8.77-42.66-2.95-56.57.41-11,2.66-29.94,12.53-37.97,13.4-3.41.37-4.57.15-6.63-2.76-1.89-6.5,12.17-11.19,16.39-16.33,18.08-22.01,5.31-81.12,6.25-108.45,1.02-7.23,7.42-13.63,15.02-13.34,14.96.57,35.56,26.69,20.68,26.61-8.04-.04-16.14-27.41-25.27-15.1-1.52,36.83,8.64,75.85-4.41,111.27Z"/>
    <path d="M2084.68,736.19l8.02,2.97c-8.27,29.8-55.68,73.61-84.88,46.09-36.69-34.57,18.99-141.46,62.98-132.63,13.62,2.73,16.25,16.96,5.09,15.59-8.13-1-10.53-5.94-22.08-2.79-22.01,6.01-49.88,63.89-49.14,85.95,2.2,65.49,69.19,20.15,80.01-15.17Z"/>
    <path d="M2318.07,752.49l19.66-34.57c3.71-3.29,8.17-7.57,13.64-6.09,17.23,4.64,11.32,66.41,20.92,67.21l8.19-4.03c4.06.03-.39,11.3-10.14,10.31-16.02-1.62-15.26-47.81-18.08-59.95-.59-2.56-.39-6.33-4.53-5.7-9.9,1.51-23.11,37.9-26.16,47.61-2.76,8.76-.91,25.05-11.69,26.17-4.59-25.7-1.15-52.73,2.37-78.5,1.88-13.71,6.98-49.76,13.45-60.23,3.61-5.85,9.11-2.25,8.39,4.07-.89,7.8-7.37,22.11-9.29,31.85-3.98,20.18-6.84,41.31-6.73,61.84Z"/>
    <path d="M2772.18,697.71c9.31,23.65-15.85,59.47-42.51,48.64-18.38,62.34,38.67,22.99,52.23-4.07,4.23-.86,3.46,1.99,2.94,4.98-1.08,6.21-7.04,14.66-11.13,19.6-31.15,37.61-73.47,22.33-49.6-29.12,5.1-11,33.39-54.78,48.07-40.03ZM2735.81,740.2c15.17,3.3,29.8-18.36,31.38-31.14.33-2.69,2.32-3-1.74-5.71-6.5-.99-32.92,33.72-29.64,36.86Z"/>
    <path d="M1557.65,774.43c-9.32,10.17-20.26,2.86-24.98-7.57l-7.11-24.59c-3.11,12.41-24.81,56.62-42.2,43.17-11.05-8.55.51-49.24,4.29-61.61,1.7-5.56,5.24-22.95,13.32-17.43,1.51,1.03,1.97,2.16,1.99,3.97.09,6.34-10.73,30.82-12.91,40.43-13.64,59.93,22.61,7.48,31.73-13.32,4.03-9.2,5.88-23.97,8.94-29.97,2.45-4.8,9.67-6.06,11.02-.83.79,3.07-3.68,18.54-4,24.23-.56,9.74-.66,23.22,2.67,32.3,7.05,19.21,12.06,2.85,16.84,3.62,3.73,2.27,2.89,4.88.4,7.59Z"/>
    <path d="M2129.09,701.77c14.98-3.19,21.97,7.23,23.11,21.05,1.64,19.9-21.33,70.14-45.58,66.18-29.14-4.75-12.39-65.58,4.83-78.25,2.37-1.74,15.05-8.43,17.63-8.98ZM2131.18,707.8c-10.58,1.72-25.85,28.54-29.13,38.61-3.49,10.72-6.32,25.9,2.29,34.54,17.23,5.88,35.69-35.05,37.41-48.08,1.18-8.95,2.4-27.19-10.57-25.08Z"/>
    <path d="M3007.78,703.69c1.72,3,.43,7.88-2.72,9.89-4.99.95-11.34-18.4-30.47.22-8.64,8.41-33.48,54.39-17.66,62.26,11.21,4.08,26.25-3.07,34.73-10.38,2.97-2.56,11.24-15.12,13.43-15.2,1.6-.06,3.43,3,2.08,6.1-6.54,15.08-35.74,37.37-53.02,28.4-29.84-15.48,8.94-92.2,40.17-87.41,2.07.32,12.94,5.2,13.45,6.1Z"/>
    <path d="M2920.1,701.32l-1.41,6.15c-7.74.66-11.69,8.92-15.3,15-7.14,12.01-21.27,55.13-27.3,60.75-1.89,1.76-5.34,3.29-7.13,2.05-1.69-1.17-11.18-33.44-13.37-38.87-1.52-3.75-24.53-41.94-10.23-38.94l4.81,5.45,24.89,55.96c10.71-21.82,16.37-64.39,45.07-67.55Z"/>
    <path d="M1761.03,701.32l-1.41,6.15c-7.74.66-11.69,8.92-15.3,15-7.14,12.01-21.27,55.13-27.3,60.75-1.89,1.76-5.34,3.29-7.13,2.05-1.69-1.17-10.9-32.69-13.41-38.84-1.56-3.82-24.43-41.96-10.2-38.97l4.81,5.45,24.89,55.96c10.71-21.82,16.37-64.39,45.07-67.55Z"/>
    <path d="M1163.09,725.87l13.48-22.33c4.83-6.69,12.45-12.34,20.72-8.92,10.8,4.46,6.46,16.9,2.63,13.89l-5.3-7.07c-18.41,8.28-30.95,38.96-31.57,58.31-.2,6.2,6.66,31.62-7.07,27.54-6.81-2.03-1.18-23.58-1-29.58.32-10.71.33-22.25-.01-32.95-.18-5.63-5.84-20.98,1.15-23.29l8.08,1.77-1.1,22.62Z"/>
    <path d="M2789.24,701.51c3.64-.78,8.4-.88,9.75,3.15l-1.73,21.21,13.48-22.33c5.02-12.14,28.82-13.56,27.58.78-1.04,11.94-7.51-2.38-9.53-2.88-13.99-3.46-31.19,46.51-31.57,58.31-.33,10.26,7.44,23.88-5.1,27.65l-4.78-3.49c.69-19.7,2.28-39.25,1.8-59.15-.19-7.94-4.66-15.05.11-23.26Z"/>
    <path d="M2928.8,782.7c5.52,5.73,12.91-4.76,13.82,1.58s-12.37,9.06-18.34,3.97c-14.39-12.27-13.61-65.2.98-78.74,10.36-2.21.14,21.96-.52,26.12-1.73,10.88-3.89,38.81,4.07,47.07Z"/>
    <circle cx="2926.86" cy="678.79" r="6.1"/>
    <circle cx="2396.65" cy="678.8" r="6.03"/>
    <circle cx="1767.97" cy="678.8" r="6.03"/>
    <circle cx="1667.62" cy="678.8" r="6.03"/>
  </g>
  <g>
    <path class="st0" d="M2489,771.78c9.21,9.57,45.75-45.23,51.33-50.01,7.27-6.24,10.05-1.65,12.76,5.39,11.86,30.82,6.64,93.58-20.01,116.37-26.4,22.58-60.05-7.66-54.31-36.91,8.73,1.46,5.99,14.11,11.35,22.42,9.71,15.04,28.38,17.66,40.89,4.23,17.54-18.83,20.13-64.67,17.37-89.11-.35-3.11-3.37-17.98-8.29-12.04-8.06,13.6-28.65,47.95-45.97,47.99-4.54.01-10.68-4.49-11.18-4.16s-.14,7.15-9.24,6.12c-20.26-2.29-15.48-54.41-22.58-67.6-9.75,9.43-17.44,21.51-23.91,33.43-3.96,7.29-12.3,30.77-15.09,34.05-1.69,1.99-15.06,8.44-18.18,8.26-10.4-.62-16.28-19.14-17.34-27.85-1.1-9.06.99-51.86,11.07-54.03,10.99,3.23.92,18.03-.52,26.12-2.3,12.94-3.23,24.69.48,37.37,3.5,12,7.62,16.69,17.01,4.68,2.43-8.13,6.04-64.07,8.79-65.93,2.14-1.45,8.66-.44,9.84,3.17,2.68,8.21-6.83,20.57-2.88,29.38,9.69-12.76,15.7-29.09,30.83-36.96,20.34-1.96,10.73,58.51,22.46,69.78l8.96-4.36c-3.51-7.75.05-18.76,3.27-26.41,6.21-14.79,38.07-58.3,55.14-57.3,9.94.58,17.07,17.36,10.35,24.5-10.82,11.51-.79-21.85-16.48-14.44-12.65,5.97-54.28,65.17-45.91,73.86Z"/>
    <path class="st0" d="M1860.32,771.78c9.21,9.57,45.75-45.23,51.33-50.01,9.77-8.38,13.35,5.08,15.31,13.07,7.58,30.89,3.34,86.54-22.56,108.68-26.49,22.65-59.95-7.74-54.31-36.9,8.72,1.45,5.99,14.11,11.35,22.41,9.71,15.04,28.38,17.66,40.89,4.23,17.54-18.83,20.13-64.67,17.37-89.11-.35-3.11-3.37-17.98-8.29-12.04-8.06,13.6-28.65,47.95-45.97,47.99-4.54.01-10.68-4.49-11.18-4.16s-.13,7.14-9.24,6.12c-19.8-2.21-15.65-54.48-22.58-67.6-9.7,9.44-17.51,21.49-23.91,33.43-4.27,7.96-11.01,28.73-14.17,32.93-5.29,7.04-21.06,13.08-28.21,4-12.7-16.13-11.33-61.09,2.82-76.51,10.36-2.22.14,21.97-.52,26.12-2.11,13.31-3.34,24.29.48,37.38,3.5,12,7.62,16.69,17.01,4.68,2.43-8.13,6.04-64.07,8.79-65.93,2.14-1.45,8.66-.44,9.84,3.17,2.68,8.21-6.83,20.57-2.88,29.38,9.69-12.76,15.7-29.09,30.83-36.96,17.19-1.66,14.36,47.28,17.88,59.94,3.18,11.42,3.19,11.34,13.55,5.47-3.75-8.7.73-20.82,4.56-29.21,6.47-14.16,37.38-55.46,53.85-54.5,9.94.58,17.07,17.36,10.35,24.5-10.82,11.51-.79-21.85-16.48-14.44-12.8,6.04-54.36,65.09-45.91,73.86Z"/>
    <path class="st0" d="M1110.79,659.15c-14.89-2.69-21.79-7.8-35.84,2.04-23.19,16.24-44.78,62.67-41.43,90.62,9.71,80.97,100.27-10.88,93.39-52.39-1.7-3.69-2.5-3.38-5.95-2.52-11.66,2.92-33.51,23.82-44.4,25.39-3.81.55-6.43-.2-6.7-4.72,8.47-9.75,20.33-16.13,32.02-21.25,12.21-5.35,34.39-17.63,35.39,4.98.6,13.65-7.1,39.22-8.02,55.16-.51,8.97-.88,21.96-.02,30.72.8,8.2,1.48,10.47,10.24,9.21v8.16c-28.79,2.57-20.04-37.24-18.45-55.28-11.99,13.92-20.1,31.09-38.29,38.48-44.57,18.09-61.46-16.42-57.9-55.85,2.56-28.38,29.5-81.95,60.5-86.93,11.7-1.88,28.98-1.57,25.47,14.19Z"/>
    <path class="st0" d="M1479.42,679.63c1.13-7.28-3.66-21.45-11.38-22.59-9.86-1.51-13.29,9.26-15.82,16.91-5.49,16.66-4.79,33.67-7.61,50.73l20.47,1.03,4.08,11.26c-6.04-.04-6.2-6.23-13.25-6.3-3.78-.04-10.69,2.88-12.35,6.3-2.99,6.18,3.15,34.87,3.25,44.04.1,8.5-1.88,9.98-10.4,9.21l-2.08-51.2c-16.13,5.15-18.47,15.7-27.6,26.65-37.54,45.02-77.61,14.27-42.05-42.05,4.96-7.86,33.35-44.38,41.68-25.09,8.61,19.93-19.39,59.19-43.67,46.63-11.96,34.22,3.52,43.71,30.73,21.53,15.57-12.69,20.48-31.5,41.99-37.88,2.94-20.58,2.64-77.02,30.89-79.87,24.04-2.42,20.82,39.92,13.12,30.68ZM1368.84,739.02c15.17,3.3,29.8-18.36,31.38-31.14.33-2.69,2.32-3-1.74-5.71-6.5-.99-32.92,33.72-29.64,36.86Z"/>
    <path class="st0" d="M2226.68,769.52c-1.75-24.35,24.45-79.3,53.54-72.67,7.66,1.75,17.99,7.52,9.07,15.55-4.36.83-11.05-16.15-27.53-2.98-9.11,7.27-26.5,41.65-26.37,53.19.26,23.98,30.77,10.76,41.64.99,1.28-1.16,13.75-20.58,15.38-11.21,1.5,8.67-29.82,32.47-40.16,33.6-16.4,1.79-17.28-8.71-22.53-9.64-2.4-.42-6.19,1.88-9.82,1.58-16.04-1.35-12.7-28.59-14.53-28.68-8.92,13.11-19.5,25.89-33.15,34.45-5.73,3.59-13.15,10.36-20.3,4.67-15.07-12.01,18.38-58.27,27.8-68.85,6.43-7.22,31.91-32.48,41.21-20.61,6.03,7.35-.8,15.91-1.24,20.65-.22,2.4,1.37,5.3,1.07,8.06-.95,8.73-9.53,39.14-.07,43.24l6-1.34ZM2214.56,702.17c-17.64,8.55-33.96,29.93-44.65,46.46-3.81,5.89-25.85,40.27-4.55,32.32,9.62-3.59,40.25-41.91,44.06-52.2,1.33-3.59,6.25-25.12,5.14-26.58Z"/>
    <path class="st0" d="M1278.53,769.52c-1.75-24.35,24.45-79.3,53.54-72.67,7.66,1.75,17.99,7.52,9.07,15.55-4.37.83-11.05-16.15-27.53-2.98-10.51,8.39-38.64,60.09-19.15,66.07,10.59,3.25,26.66-4.92,34.42-11.9,1.28-1.16,13.75-20.58,15.38-11.21,1.5,8.67-29.82,32.47-40.16,33.6-16.4,1.79-17.28-8.71-22.53-9.64-2.4-.42-6.19,1.88-9.82,1.58-16.04-1.35-12.7-28.6-14.53-28.68-6.21,11.06-40.02,49.85-53.45,39.12-15.06-12.03,18.37-58.25,27.8-68.85,6.43-7.22,31.91-32.48,41.21-20.61,6.03,7.35-.8,15.91-1.24,20.65-.22,2.4,1.37,5.3,1.07,8.06-.95,8.73-9.53,39.14-.07,43.24l6-1.34ZM1266.41,702.17c-17.74,8.58-33.85,29.9-44.65,46.46-3.93,6.02-26.11,40.3-4.55,32.32,9.6-3.55,40.26-41.93,44.06-52.2,1.33-3.59,6.25-25.12,5.14-26.58Z"/>
    <path class="st0" d="M3061.89,696.53c9.32,23.22-15.56,59.5-42.51,48.64-11.38,32.68,1.92,44.03,29.63,22.48,5.99-4.65,20.75-20.86,25.03-27.01.34-.48-.06-7.53,1.83-11.65,5.38-11.76,27.56-34.37,40.94-34.9,6.75-.26,16.76,3.88,15.18,12.15-21.02-7.77-42.97,9.33-47.25,29.43,12.18,7.2,26.34-.57,38.97,8.56,24.68,17.84-25.62,55.87-42.93,36.81-5.57-6.13-4.83-11.9,1.08-17.44,5.63-2.73,1.91,11.16,3.03,12.28,10.97,4.86,50.22-13.03,34.76-25.52-9.42-7.61-33.01,1.09-44.97-7.25-9.78,51.05-93.73,64.27-60.86-6.57,5.1-11,33.39-54.79,48.07-40.03ZM3025.53,739.02c15.17,3.3,29.8-18.36,31.38-31.14.33-2.69,2.32-3-1.74-5.71-6.5-.99-32.92,33.72-29.64,36.86Z"/>
    <path class="st0" d="M2699.93,679.64c-3.07-2.11,2.07-18.18-2.37-22.22-13.25-8.35-53.92,28.13-62.17,38.59-10.83,13.72-14.75,20.49,4.23,26.53,14.96,4.76,51.94,6.21,61.28,18.59,20.95,27.76-38.13,69.51-65.57,43.05-7.97-7.68-10.39-16.08-1.93-24.64l5.63,17.89c16.19,14.45,62.49-7.15,56.53-28.74-3.91-14.15-61.17-13.07-74.53-23.92-9.63-7.82-2.97-22.36,2.05-30.85,11-18.59,56.14-55.07,78.4-45.49,15.75,6.79,8.38,38.01-1.52,31.21Z"/>
    <path class="st0" d="M1569.52,773.83c22.33-5.42,47.44-17.08,69.68-5.18l12.2,9.27c-.17-6.73-3.44-12.79-4.05-19.46-.69-7.58,1.82-52.65,13.26-50.14,6.82,6.43-1.17,17.67-2.51,26.12-1.76,11.05-3.88,38.61,4.06,47.12,3.89,4.17,7.13-.09,9.6-.65,10.09-2.31-.47,15.96-13.01,7.1-2.89-2.04-2.08-6.13-5.25-5.96l-1.93,7.29-6.28.9c.08-5.15,1.2-8.78-3.26-12.12-11.73-8.77-42.66-2.95-56.57.41-11,2.66-29.94,12.53-37.97,13.4-3.41.37-4.57.15-6.63-2.76-1.89-6.5,12.17-11.19,16.39-16.33,18.08-22.01,5.31-81.12,6.25-108.45,1.02-7.23,7.42-13.63,15.02-13.34,14.96.57,35.56,26.69,20.68,26.61-8.04-.04-16.14-27.41-25.27-15.1-1.52,36.83,8.64,75.85-4.41,111.27Z"/>
    <path class="st0" d="M2077.46,735l8.02,2.97c-8.27,29.8-55.68,73.61-84.88,46.09-36.69-34.57,18.99-141.46,62.98-132.63,13.62,2.73,16.25,16.96,5.09,15.59-8.13-1-10.53-5.94-22.08-2.79-22.01,6.01-49.88,63.89-49.14,85.95,2.2,65.49,69.19,20.15,80.01-15.17Z"/>
    <path class="st0" d="M2310.85,751.31l19.66-34.57c3.71-3.29,8.17-7.57,13.64-6.09,17.23,4.64,11.32,66.41,20.92,67.21l8.19-4.03c4.06.03-.39,11.3-10.14,10.31-16.02-1.62-15.26-47.81-18.08-59.95-.59-2.56-.39-6.33-4.53-5.7-9.9,1.51-23.11,37.9-26.16,47.61-2.76,8.76-.91,25.05-11.69,26.17-4.59-25.7-1.15-52.73,2.37-78.5,1.88-13.71,6.98-49.76,13.45-60.23,3.61-5.85,9.11-2.25,8.39,4.07-.89,7.8-7.37,22.11-9.29,31.85-3.98,20.18-6.84,41.31-6.73,61.84Z"/>
    <path class="st0" d="M2764.96,696.53c9.31,23.65-15.85,59.47-42.51,48.64-18.38,62.34,38.67,22.99,52.23-4.07,4.23-.86,3.46,1.99,2.94,4.98-1.08,6.21-7.04,14.66-11.13,19.6-31.15,37.61-73.47,22.33-49.6-29.12,5.1-11,33.39-54.78,48.07-40.03ZM2728.59,739.02c15.17,3.3,29.8-18.36,31.38-31.14.33-2.69,2.32-3-1.74-5.71-6.5-.99-32.92,33.72-29.64,36.86Z"/>
    <path class="st0" d="M1550.43,773.25c-9.32,10.17-20.26,2.86-24.98-7.57l-7.11-24.59c-3.11,12.41-24.81,56.62-42.2,43.17-11.05-8.55.51-49.24,4.29-61.61,1.7-5.56,5.24-22.95,13.32-17.43,1.51,1.03,1.97,2.16,1.99,3.97.09,6.34-10.73,30.82-12.91,40.43-13.64,59.93,22.61,7.48,31.73-13.32,4.03-9.2,5.88-23.97,8.94-29.97,2.45-4.8,9.67-6.06,11.02-.83.79,3.07-3.68,18.54-4,24.23-.56,9.74-.66,23.22,2.67,32.3,7.05,19.21,12.06,2.85,16.84,3.62,3.73,2.27,2.89,4.88.4,7.59Z"/>
    <path class="st0" d="M2121.87,700.59c14.98-3.19,21.97,7.23,23.11,21.05,1.64,19.9-21.33,70.14-45.58,66.18-29.14-4.75-12.39-65.58,4.83-78.25,2.37-1.74,15.05-8.43,17.63-8.98ZM2123.96,706.62c-10.58,1.72-25.85,28.54-29.13,38.61-3.49,10.72-6.32,25.9,2.29,34.54,17.23,5.88,35.69-35.05,37.41-48.08,1.18-8.95,2.4-27.19-10.57-25.08Z"/>
    <path class="st0" d="M3000.56,702.51c1.72,3,.43,7.88-2.72,9.89-4.99.95-11.34-18.4-30.47.22-8.64,8.41-33.48,54.39-17.66,62.26,11.21,4.08,26.25-3.07,34.73-10.38,2.97-2.56,11.24-15.12,13.43-15.2,1.6-.06,3.43,3,2.08,6.1-6.54,15.08-35.74,37.37-53.02,28.4-29.84-15.48,8.94-92.2,40.17-87.41,2.07.32,12.94,5.2,13.45,6.1Z"/>
    <path class="st0" d="M2912.88,700.13l-1.41,6.15c-7.74.66-11.69,8.92-15.3,15-7.14,12.01-21.27,55.13-27.3,60.75-1.89,1.76-5.34,3.29-7.13,2.05-1.69-1.17-11.18-33.44-13.37-38.87-1.52-3.75-24.53-41.94-10.23-38.94l4.81,5.45,24.89,55.96c10.71-21.82,16.37-64.39,45.07-67.55Z"/>
    <path class="st0" d="M1753.81,700.13l-1.41,6.15c-7.74.66-11.69,8.92-15.3,15-7.14,12.01-21.27,55.13-27.3,60.75-1.89,1.76-5.34,3.29-7.13,2.05-1.69-1.17-10.9-32.69-13.41-38.84-1.56-3.82-24.43-41.96-10.2-38.97l4.81,5.45,24.89,55.96c10.71-21.82,16.37-64.39,45.07-67.55Z"/>
    <path class="st0" d="M1155.87,724.68l13.48-22.33c4.83-6.69,12.45-12.34,20.72-8.92,10.8,4.46,6.46,16.9,2.63,13.89l-5.3-7.07c-18.41,8.28-30.95,38.96-31.57,58.31-.2,6.2,6.66,31.62-7.07,27.54-6.81-2.03-1.18-23.58-1-29.58.32-10.71.33-22.25-.01-32.95-.18-5.63-5.84-20.98,1.15-23.29l8.08,1.77-1.1,22.62Z"/>
    <path class="st0" d="M2782.02,700.33c3.64-.78,8.4-.88,9.75,3.15l-1.73,21.21,13.48-22.33c5.02-12.14,28.82-13.56,27.58.78-1.04,11.94-7.51-2.38-9.53-2.88-13.99-3.46-31.19,46.51-31.57,58.31-.33,10.26,7.44,23.88-5.1,27.65l-4.78-3.49c.69-19.7,2.28-39.25,1.8-59.15-.19-7.94-4.66-15.05.11-23.26Z"/>
    <path class="st0" d="M2921.58,781.51c5.52,5.73,12.91-4.76,13.82,1.58.95,6.6-12.37,9.06-18.34,3.97-14.39-12.27-13.61-65.2.98-78.74,10.36-2.21.14,21.96-.52,26.12-1.73,10.88-3.89,38.81,4.07,47.07Z"/>
    <circle class="st0" cx="2919.64" cy="677.6" r="6.1"/>
    <circle class="st0" cx="2389.43" cy="677.61" r="6.03"/>
    <circle class="st0" cx="1760.75" cy="677.61" r="6.03"/>
    <circle class="st0" cx="1660.4" cy="677.61" r="6.03"/>
  </g>
  <g>
    <path class="st0" d="M588.43,644.17c-25.49,25.81-51.49,51.28-78.35,75.68-8.52,7.74-17.53,14.87-25.81,22.8-7.68,45.05-12.21,90.7-19.86,135.74-.14.84-.17,3.3-1.11,3.44l-20.67-138.73c-28.52-25.56-56.28-51.96-83.84-78.56l-18.81-19.77c22.59,12.09,44.78,25.23,67.41,37.39,17.97,9.66,36.34,18.62,54.25,28.4l1.91.45,60.5-31.29,64.38-35.57Z"/>
    <path class="st0" d="M785.85,645.99c.75.82-8.26,17.88-9.4,20.07-14.37,27.38-32,52.77-51.66,76.56-4.34,37.52-9.48,74.99-19.16,111.52l-7.84,27.09c.38-8.2.36-16.43.58-24.64,1.01-37.97.22-75.84-5.6-113.48-31.16-34.87-65.26-66.85-100.06-98.03,5.52,2.17,10.91,5.26,16.19,8.11,33.63,18.14,66.51,37.61,98.91,57.83,25.57-18.16,51.49-37.73,73.21-60.44.57-.59,3.9-5.6,4.84-4.57Z"/>
    <path class="st0" d="M335.11,644.78l-58.02,54.08c-14.3,14.66-29.27,28.82-41.93,44.96-5.62,45.01-6.84,88.79-3.89,134.05.05.7.44,3.37-.63,3.37-12.61-45.17-22.58-91.1-26.39-138.02-23.13-30.69-45.65-62.42-59.87-98.44,11.67,11.94,23.18,24.03,35.83,34.96,12.89,11.13,26.69,21.29,40.43,31.33,1.52.15,22.49-14.02,25.84-16.09,28.88-17.84,58.42-34.74,88.63-50.2Z"/>
    <path class="st0" d="M582.96,900.08l-1.27,2.07c-20.64,16.52-40.27,34.41-61.01,50.8-8.49,6.71-34.54,22.9-38.47,30.8-.99,1.99-1.26,4.6-1.72,6.79-6.33,30.35-9.7,61.95-15.07,92.51l-18.71-98.3c-32.19-26.84-65.66-52.33-97.3-79.83-1.51-1.32-3.7-2.79-4.58-4.54.46-.92,1.47.14,2.03.4,23.66,11,47.12,24.12,70.65,35.67,15.51,7.61,31.09,15.1,46.69,22.53l118.76-58.92Z"/>
    <path class="st0" d="M547.12,438.71c.68.71-5.21,7.7-6.09,8.8-17.61,21.93-38.49,41.18-59.8,59.3-6.26,38.97-9.53,79.32-16.9,118.03-.13.67-.12,2.41-1.03,2.3-5.14-39.76-11.51-79.37-15.31-119.32-23.48-21.95-47.31-43.72-66.08-70.03,7.62,3.77,14.59,8.94,21.91,13.33,19.63,11.77,40.07,22.12,60.49,32.44l43.14-21.64,39.68-23.2Z"/>
    <path class="st0" d="M776.74,900.69c.26,1.14-.64,1.44-1.21,2.13-3.36,4.05-8.57,8.69-12.44,12.48-17.45,17.08-35.84,33.7-54.7,49.21-7.23,5.95-16.29,11.68-23.05,17.66-5.91,5.23-13.29,21.92-17.83,29.57-11.92,20.08-29.9,50.04-46.03,66.4-.63.64-.87,1.55-2.06,1.27,4.21-9.25,9.56-17.93,13.88-27.13,10.03-21.39,17.37-44.14,22.46-67.23-18.1-31.23-41.68-58.6-66.11-84.94,1.33-.19,2.34.56,3.45,1.1,10.21,5.05,22.89,13.82,32.71,20.15,18.21,11.75,35.74,24.4,52.93,37.58l52.03-29.18,45.98-29.05Z"/>
    <path class="st0" d="M337.55,900.08c.43.41-3.14,4.56-3.66,5.15-21.93,25.11-44.34,50.01-60.01,79.79,6.94,26.37,15.71,52.37,28.33,76.56,2.26,4.33,6.26,9.65,8.04,13.84.4.96.78,1.65.57,2.77-18.17-20.92-34.17-43.56-48.47-67.29-3.93-6.52-10.5-21.21-14.69-26.03-4.38-5.05-15.82-12.52-21.56-17.33-24.41-20.46-48.31-41.57-70.17-64.73l2.4.03c29.65,20.71,60.85,39.05,92.68,56.21,24.48-19.48,50.03-37.65,76.89-53.76,1.19-.71,9.13-5.73,9.67-5.21Z"/>
    <path class="st0" d="M697.16,625.92c-.87.09-.99-1.43-1.22-2.11-13.55-39.71-26.79-79.49-47.11-116.37-12.31-9.18-24.66-18.31-37.12-27.29-18.36-13.23-39.33-25.93-56.88-39.73-.59-.47-1.47-.91-1.62-1.71l97.51,44.81c9.81-9.5,19.11-19.8,25.74-31.82l5.53-14.21c3.51,16.83,3.6,33.8-.9,50.45-1.79,6.62-4.81,12.64-6.95,19.1,12.28,38.51,20.94,78.38,23.05,118.88Z"/>
    <path class="st0" d="M376.43,439.32c-.16.8-1.03,1.24-1.62,1.71-19.76,15.54-43.49,29.69-64.17,44.59-6.5,4.68-25.5,16.93-29.57,22.07-4.56,5.75-12.18,24.09-15.71,31.69-8.29,17.87-15.8,36.1-22.57,54.61l-10.92,31.92c2.58-32.09,7.8-63.92,16.7-94.82,1.6-5.56,7.25-19,7.57-23.48.21-3-5.45-18.39-6.47-23.22-2.07-9.8-2.99-19.6-2-29.59.58-5.83,2.18-11.55,3.04-17.33,1.15.19.99,1.28,1.28,2.06,1.51,4.07,2.27,8.16,4.08,12.33,4.99,11.52,14.75,23.17,24.12,31.22l96.26-43.78Z"/>
    <path class="st0" d="M610.3,883.05h-43.74l4.25-88.14h45.26c1.53,0,.3,3.57.27,4.53-.75,27.91-2.87,55.84-6.05,83.61Z"/>
    <path class="st0" d="M356.38,794.91l4.86,88.14h-43.74c-3.4-29.25-6.12-58.71-6.68-88.14h45.56Z"/>
    <path class="st0" d="M610.3,628.36h-43.43l-9.42-80.24h39.79c.64.37.71.91.89,1.55,3.01,10.67,4.83,25.34,6.61,36.55,2.22,13.99,4.06,28.06,5.57,42.15Z"/>
    <path class="st0" d="M370.35,548.12l-9.11,80.24h-43.74c3.03-26.96,7.58-53.77,13.36-80.24h39.49Z"/>
    <path class="st0" d="M858.16,711.02c.25.21.87.24,1.2-.39,2.42-4.65,5.65-13.59,7.31-18.73,4.1-12.63,5.81-25.34,4.24-38.62l1.72,7.69c5.58,28.89-3.37,57.61-5.97,86.23-4.1,45.12-5.83,82.46-21.11,125.99-.38,1.08-.4,3.01-1.98,2.56,2.63-12.42,5.31-24.91,7.19-37.48,4.71-31.49,5.55-63.41,3-95.2-15.97-35.65-37.63-67.59-63.04-97.09,1-.18,1.64.47,2.38.96,20.52,13.61,45.67,38.76,61.04,58.06.82,1.03,3.75,5.78,4.02,6.01Z"/>
    <path class="st0" d="M139.51,646.6l-22.97,30.81c-11.7,17.23-24.75,35.27-33.02,54.49-3.77,8.76-4.41,13.58-4.78,23.18-1.27,32.69.39,66.13,6.39,98.21,1.41,7.52,4.05,15.56,5.12,22.85.09.64.51,2.22-.54,2.06-9.11-31.38-17.59-63.03-20.66-95.74-1.2-12.72-.81-25.76-1.84-38.28-.69-8.39-3.63-18.12-4.76-26.84-2.76-21.15-2.33-41.36,2.35-62.22,1.01-.16.65,1.47.63,2.15-.06,1.73-.6,3.21-.66,4.82-.65,17.62,2.35,33.12,10.05,48.96,14.28-19.45,30.25-36.63,48.62-52.26,3.99-3.4,9.5-8.44,13.7-11.21.74-.49,1.38-1.13,2.38-.96Z"/>
    <path class="st0" d="M812.58,794.91c-1.95,29.83-7.76,59.15-14.58,88.14h-27.94c7.51-28.79,11.68-58.45,13.97-88.14h28.55Z"/>
    <path class="st0" d="M146.2,794.91c2.42,29.72,7.17,59.16,13.97,88.14h-25.82c-2.3-6.31-3.94-13.37-5.47-20.05-5.1-22.31-8.49-45.23-10.02-68.09h27.34Z"/>
    <path class="st0" d="M768.85,548.12c10.05,22.98,19.72,46.26,26.42,70.51.87,3.14,1.99,6.52,2.13,9.73h-26.42c-2.88-7.32-4.4-15.44-6.68-23.1-1.84-6.17-3.7-12.46-5.75-18.56-4.38-13.05-9.92-25.65-14.6-38.58h24.91Z"/>
    <path class="st0" d="M134.05,628.36c6.38-27.7,17.3-54.1,29.12-79.8,1.38-1.75,3.45-.42,5.17-.41,5.51.04,13.08-.7,18.26-.03.71.09,1.22-.25.88.89-1.23,4.14-4.59,9.97-6.34,14.33-8.47,21.15-15.36,42.93-20.98,65.02h-26.12Z"/>
    <path class="st0" d="M719.64,1075.14c3.91-5.99,14.8-14.69,20.36-20.66,14.41-15.47,27.48-32.66,38.82-50.51,2.75-4.33,9.46-13.97,10.99-18.18,2.88-7.92,2.95-31.57,2.11-40.42-1.47-15.54-6.28-30.34-10.32-45.29,1.42-.27,1.86,1.52,2.65,2.51,12.98,16.25,24.35,35.37,26.51,56.45,15.53-13.51,29.88-28.37,41.3-45.59-6.63,17.76-19.33,32.94-30.99,47.7-30.15,38.18-62.67,85.22-101.43,113.99Z"/>
    <path class="st0" d="M582.36,1024.08c-6.41,20.43-13.11,41.08-22.78,60.18h-27.64l15.49-60.18h34.93Z"/>
    <path class="st0" d="M382.5,1024.08l16.4,60.18h-27.64c-9.75-19.28-17.38-39.61-23.99-60.18h35.23Z"/>
    <path class="st0" d="M203.91,1064.2l-.61.61c-19.06-17.01-35.46-34.01-51.27-54.16-6.87-8.77-12.96-18.33-19.82-26.97-13.97-17.57-27.25-31.24-38.74-51.2-3.88-6.74-7.87-14.18-10.45-21.45,1.62-.33,1.05.41,1.51,1.2,1.73,2.94,3.05,6.11,4.92,9.08,9.07,14.43,21.33,26.17,33.66,37.74,1.72-16.74,7.45-32.23,16.76-46.15l10.57-14.64c-5.79,22.86-12.01,46.96-10.31,70.8.78,10.95,3.44,15.64,8.85,24.58,16.16,26.7,33.66,47.96,54.92,70.56Z"/>
    <path class="st0" d="M765.81,483.07c-2.85-11.45-7.57-22.65-15.18-31.6,1.14-.27,1.44.64,2.12,1.21,17.07,14.3,25.38,35.81,36.04,54.51,19.86,34.84,36.77,62.49,48.26,101.86,1.02,3.51,2.37,7.1,2.26,10.8l-13.25-31.41c-8.42-18.54-18.07-36.47-29.01-53.64-5.04-7.9-13.24-21.56-19.36-28.04-4.68-4.95-13.88-11.78-19.48-16.37-21.47-17.6-44.37-33.36-67.71-48.34.61-.77,2.11-.1,2.87.17,14.55,5.31,29.97,16.61,44.09,23.35l28.37,17.5Z"/>
    <path class="st0" d="M245.21,439.92c-.16.8-1.01,1.26-1.63,1.71-24.88,17.96-50.64,33.18-74.32,53.29-13.41,11.39-20.12,21.42-29.64,35.99-11.54,17.67-22.12,36.11-31.01,55.29-4.1,8.84-7.51,20.01-11.93,28.21-.46.85.05,1.5-1.52,1.18,5.5-17.42,11.28-34.77,18.72-51.47,10.06-22.54,23.51-43.31,35.63-64.64,7.15-12.58,13.08-23.43,22.48-34.65,2.53-3.02,11.38-13.49,13.95-15.21.56-.37,1.71-1.11,2.15-.28-8.55,8.59-16.58,20.96-19.4,32.87-.19.81.08,1.18.87.87,2.48-.99,9.01-6.29,11.91-8.15,16.86-10.81,34.32-20.76,52.18-29.85,3.66-1.86,7.61-4.22,11.55-5.15Z"/>
    <path class="st0" d="M536.19,1096.42c.36,1.57-.46,1.06-1.15,1.56-13.28,9.81-28.04,18.64-41.56,28.33-4.03,2.88-15.96,10.58-18.36,13.85-.67.92-.85,1.38-1.21,2.43-2.85,8.42-3.27,18.83-6.05,27.38l-9.4-29.51c-21.29-15.82-43.5-30.38-65.63-44.96l4.07.8,69.14,31.15c21.23-9.01,41.76-19.82,63.07-28.71,1.25-.52,6.28-2.94,7.09-2.32Z"/>
    <path class="st0" d="M460.73,649.8c29.73-3.39,34.55,40.16,5.84,43.53-30.29,3.56-35.21-40.18-5.84-43.53Z"/>
    <path class="st0" d="M459.5,904.49c32.93-4.5,33.8,42.13,1.64,39.38-22.93-1.97-25.03-36.18-1.64-39.38Z"/>
    <path class="st0" d="M732.4,1024.08l-10.69,15.13c-3.83,5.65-38.18,45.05-41.24,45.05h-16.71c-.26-1.06.44-1.22.91-1.83,2.67-3.49,7.3-7.46,10.34-10.93,13.08-14.91,24.75-30.99,35.83-47.42h21.56Z"/>
    <path class="st0" d="M423.8,1164.5c0,1.24-2.41.48-3.06.32-19.98-4.8-37.06-16.36-55.03-25.17-29.5-14.45-60.56-26.07-88.92-42.93-.66-.39-1.67-.61-1.81-1.53l81.14,32.2c1.4-.04,4.66-7.48,5.85-9.29,6.36-9.68,16.54-17.24,25.71-24.11-4.65,12.41-12.9,25.21-11.18,39.13.87,7.06,4.87,8.78,10.07,12.42,11.27,7.88,23.99,15.12,37.24,18.96Z"/>
    <path class="st0" d="M699.45,649.79c22.58-2.89,30.7,40.21,9.42,43.46-23.03,3.51-30.91-40.71-9.42-43.46Z"/>
    <path class="st0" d="M268.91,1084.26h-16.1c-15.86-14.16-29.81-30.28-43.07-46.87l-9.48-13.31h20.96c9.93,14.77,20.53,29.11,32.19,42.56,4.57,5.27,10.44,10.39,14.59,15.79.47.61,1.17.77.91,1.83Z"/>
    <path class="st0" d="M652.82,1097.63c1.16.92-.85,1.31-1.2,1.51-22.7,13.33-49.94,23.81-73.74,35.65-27.19,13.54-53.14,31.2-84.22,34.56l15.65-4.09c11.65-3.33,22.51-8.73,32.53-15.47,2.38-1.61,11.2-7.7,12.22-9.66,2.92-5.63,1.64-18.56-.24-24.59-2.39-7.67-6.97-14.35-10.34-21.56,12.03,8.2,22.6,16.97,30.62,29.23.8,1.22,1.53,4.15,3.05,4.19l75.67-29.77Z"/>
    <path class="st0" d="M225.01,649.78c23.34-3.59,21.29,41.2-1.43,43.55-22.64,2.34-19.63-40.31,1.43-43.55Z"/>
    <path class="st0" d="M534.37,380.96c5.62,8.9,11.5,17.65,16.51,26.95,3.28,6.09,6.73,12.85,9.01,19.25h-27.64l-18.53-46.2h20.65Z"/>
    <path class="st0" d="M418.95,380.96c-2.69,5.81-5.97,11.39-8.61,17.22-4.3,9.5-7.48,19.56-11.74,28.98h-27.64c7.26-16.43,17.2-31.46,27.34-46.2h20.65Z"/>
    <path class="st0" d="M690.33,904.48c15.43-2.46,17.29,13.44,12.32,24.48-3.94,8.74-16.64,20.16-26.14,12.77-12.34-9.6-.39-34.99,13.83-37.25Z"/>
    <path class="st0" d="M232.29,904.47c20.1-4.12,34.1,31.24,18.8,38.26-12.03,5.52-25.17-10.2-26.46-21.14-.71-6.01.43-15.64,7.67-17.12Z"/>
    <path class="st0" d="M480.92,341.44c8.65,5.8-2.86,15.48-7.17,20.48-1.43,20.31-3.99,40.53-7.52,60.56-.18,1.04-.18,3.66-1.1,4.06-1-12.28-3.27-24.5-4.25-36.78-.6-7.48-.69-15.02-1.26-22.47-.12-1.58.51-3.46.31-4.65-.33-2.02-6.38-7.99-7.81-10.93-2.15-4.4-2.01-7.9,2.67-10.27-2,3.84,11.48,11.57,12.82,11.27,4.35-3.36,12.79-5.06,13.32-11.27Z"/>
    <path class="st0" d="M461.92,441.28c22.11-3.47,26.31,27.34,4.65,29.57-21.51,2.22-23.39-26.63-4.65-29.57Z"/>
    <path class="st0" d="M681.37,427.15h-17.31c-12.72-12.46-25.88-24.53-40.2-35.15-5.05-3.74-10.66-7.05-15.38-11.05h12.45c.97,0,14.27,9.09,16.29,10.45,15.72,10.53,30.52,22.66,44.15,35.75Z"/>
    <path class="st0" d="M530.11,352.38c-2.73-2.96-6.31-5.76-10.32-6.69-.17-.95.87-.66,1.53-.63,2.68.15,8.13,2.15,10.78,3.21,11.74,4.68,34.6,22.51,44.8,31.15,11.24,9.53,29.5,29.18,36.35,42.04.46.86.86,1.63.69,2.65-19.41-21.06-39.83-42.21-64.2-57.63-8.54-5.41-17.34-8.54-26.77-12.12-11.25-4.27-23-8.62-34.77-11.1-.15-1.04,1.44-.65,2.11-.59,1.45.11,3.11.6,4.58.9,11.83,2.4,23.4,6.38,35.23,8.81Z"/>
    <path class="st0" d="M326.01,380.96l-15.99,11.05c-10.82,8.09-21.44,16.57-31.4,25.71-1.41,1.3-8.74,9.43-9.41,9.43h-17.31l14.29-12.75c10.31-8.17,20.66-16.4,31.69-23.61,1.98-1.29,14.75-9.84,15.68-9.84h12.45Z"/>
    <path class="st0" d="M439.6,344.49c-.19,1.15-1.28.99-2.05,1.28-9.56,3.59-19.96,6.15-29.69,9.8-33.04,12.42-58.64,36.23-83.09,60.92-1.5,1.52-2.2,4.28-4.84,3.96,13.07-19.06,28.7-35.89,47.45-49.47,12.1-8.76,30.83-23.11,45.35-25.74.32-.06,3.16-.7,2.27.45-3.67,1.59-7.41,3.24-10.02,6.38-.09.47.54.36.91.3,8.3-1.19,18.38-5.26,27.03-7,2.21-.44,4.4-1.09,6.69-.9Z"/>
    <path class="st0" d="M624.1,441.27c7.51-1.71,16.65,5.33,21.14,10.8,15.51,18.92-2.74,25.33-17.02,10.35-3.61-3.79-13.03-19.13-4.12-21.15Z"/>
    <path class="st0" d="M302.16,441.28c7.51-1.16,9.69,2.85,7.74,9.56-2.15,7.39-10.81,16.37-18.09,18.97-10.03,3.59-13.99-1.83-9.97-11.19,2.77-6.44,13.32-16.25,20.33-17.34Z"/>
    <path class="st0" d="M646.14,1126.8c14.63-5.85,29.19-12.12,42.83-20.05l-.33,1.49c-17.75,10.44-36.18,19.48-55.27,27.36-20.25,8.36-40.99,15.79-61.94,22.2-.29-1.68.35-1.03,1.33-1.37,19.49-6.84,37.46-11.75,54.75-23.66,14.56-10.03,27.35-22.25,34.44-38.79,1.04-.11.67,2.1.62,2.75-.85,12.99-7.56,21.38-16.42,30.06Z"/>
    <path class="st0" d="M847.65,649.72c3.03-.82,6.12,4.06,7.35,6.4,4.08,7.76,8.24,25.9,5.1,34.07-3.59,9.34-9.99-3.69-11.53-7.57-2.73-6.91-6.52-23.76-3.31-30.38.4-.82,1.53-2.29,2.39-2.52Z"/>
    <path class="st0" d="M375.21,1159.64c0,1.25-2.38.46-3.06.33-6.56-1.23-15.19-4.16-21.69-6.25-35.3-11.38-70.52-27.39-102.8-45.44l41.91,18.53c-4.98-5.73-11.09-10.32-14.68-17.22-2.06-3.96-3.91-9.62-4.17-14.07-.04-.66-.4-2.3.62-2.14,10.62,21.01,28.6,37.74,50.02,47.51,17.02,7.76,35.9,13.6,53.86,18.75Z"/>
    <path class="st0" d="M87.12,650.41c5.19,4.75-.93,29.96-3.98,36.11-1.52,3.07-5.81,10.24-8.74,4.87-3.18-5.85.06-23.07,2.27-29.58.95-2.79,5.94-15.54,10.45-11.41Z"/>
    <path class="st0" d="M463.15,1097.18c8.42-1.2,15.89,3.72,14.67,12.86-1.43,10.71-16.31,12.9-22.08,4.57-5.01-7.24-1.34-16.18,7.41-17.43Z"/>
    <path class="st0" d="M834.28,904.44c6.4-1.4,2.88,10.37,1.96,13.53-1.74,5.96-9.53,22.35-14.92,25.18-7.55,3.96-4.52-7.83-3.56-11.46,1.58-5.99,10.26-25.88,16.53-27.24Z"/>
    <path class="st0" d="M110.57,941.2c-6.3-6.04-15.77-26.79-14.19-35.35.43-2.33,2.85-1.69,4.48-.83,6.39,3.34,18.1,29.55,16.53,36.42-1.05,4.56-4.58,1.91-6.82-.24Z"/>
    <path class="st0" d="M556.23,349.34l-2.42-1.2c2.06-.02,4.23.22,6.23.65,22.49,4.79,47.91,15.51,69.31,25.57,20.57,9.67,51.99,26.76,68.24,42.34.62.6,1.72.6,1.39,1.94l-27.62-18.85c-43.66-28.59-93.29-46.67-144.89-54.7.03-1.06-.41-1.27.76-1.08,9.69,1.62,19.33,3.6,29,5.33ZM558.66,349.35c-2.53-.3-2.53.9,0,.6v-.6Z"/>
    <path class="st0" d="M609.55,1097.78c3.56,3.57-5.38,12.24-8.07,14.43-3.23,2.63-12.31,8.15-16.36,7.89-7.32-.47.39-10.67,2.68-13.06,3.32-3.47,17.32-13.69,21.74-9.26Z"/>
    <path class="st0" d="M350.15,1119.36c-2.59,2.2-10.74-2.08-13.39-3.61-3.94-2.27-17.95-12.65-13.84-17.87,3.25-4.14,15.56,3.94,18.57,6.46,2.35,1.97,12.23,11.99,8.67,15.03Z"/>
    <path class="st0" d="M416.52,343.27l-49.33,10.5c-36.21,9.59-70.43,26.11-102.48,45.16l-16.45,10.58c-.4-1.58.56-1.07,1.14-1.58,20.45-17.98,61.07-36.74,86.79-46.29,10.17-3.77,25.49-9.63,35.83-11.56.86-.16,1.72-.21,2.58-.14l-.98,1.15c14.23-2.85,28.4-6.58,42.89-7.84Z"/>
    <path class="st0" d="M725.72,441.14c1.79-.3,2.98.58,4.43,1.33,6.6,3.4,23.73,19.33,26.07,26.2,1.01,2.98-1.34,2.46-3.38,1.55-5.44-2.45-24.71-20.79-26.66-26.2-.35-.97-.63-1.82-.47-2.87Z"/>
    <path class="st0" d="M209.37,441.14c1.71,1.55-13.17,17.25-14.86,18.86-2.87,2.72-9.18,8.27-12.51,9.98-2.62,1.34-4.37,2.03-3.32-1.5,1.74-5.85,22.3-25.3,28.25-27.05.82-.24,1.59-.4,2.44-.29Z"/>
    <path class="st0" d="M276.8,1119.51c-7.06-1.38-14.54-6.16-20.6-10.08-3.52-2.27-7.89-5.1-10.99-7.84-1.25-1.11-3.34-2.84-3.63-4.56,1.26-1.11,14.89,7.56,16.95,8.86,6.24,3.94,13.1,8.39,18.28,13.62Z"/>
    <path class="st0" d="M438.08,1156.59c.39.11,4.92,4.57,6.1,5.45,5.01,3.71,10.05,7.41,16.37,8.54,1,.81-.73.65-1.22.63-10.78-.51-24.91-7.75-33.09-14.61,3.13.57,9.14-.77,11.85,0Z"/>
    <path class="st0" d="M508.25,1156.59c-7.62,6.56-20.99,14.12-31.27,14.61-.49.02-2.22.18-1.22-.63,4.1-.8,8.07-3.16,11.43-5.58,1.8-1.29,8.59-8.41,9.21-8.41h11.85Z"/>
    <path class="st0" d="M561.09,1156.6l-13.84,4.68c-15.35,3.52-29.55,8.39-45.39,9.29-1.91.11-3.85-.05-5.76,0l28.44-5.27c4.68-1.13,9.31-2.39,13.94-3.68,7.62-2.12,14.54-6.03,22.61-5.02Z"/>
    <path class="st0" d="M440.81,1169.97l-5.76.6-22.18-2.43c-.31-1.32,1.85.17,1.82-1.2l-4.85.6,1.21-1.2-20.17-4.43-16.27-5.29c2.46.1,4.99-.24,7.44.14,7.54,1.17,18.81,6.11,27.17,8.07,10.36,2.43,20.99,4.31,31.59,5.16Z"/>
    <path class="st0" d="M466.15,341.57c5.68-1.7,7.81,5.27,2.64,6.91-5.95,1.88-6.95-5.61-2.64-6.91Z"/>
    <path class="st0" d="M521,347.53c2.1,2.15-5.29.2-5.85.07l-19.05-6.15c6.49.55,13.79,1.89,19.91,4.08.75.27,4.8,1.81,4.99,2.01Z"/>
    <path class="st0" d="M413.48,348.73c1.87-2.24,5.74-3.12,8.51-3.94,5.87-1.75,12.14-2.86,18.21-3.65l-26.72,7.6Z"/>
    <path class="st0" d="M203.3,1064.81l.61-.61c1.36,1.45,3.35,2.43,4.24,4.57-2.32-.06-3.49-2.75-4.85-3.96Z"/>
    <path class="st0" d="M703.84,421.09c.34.39.1,1.63-.9,1.2-.3-.13-4-3.04-3.35-3.64.18-.17,4.08,2.26,4.24,2.44Z"/>
    <path class="st0" d="M719.64,1075.14c-.25.38-.05,1.05-.87,1.84-.75.73-2.89,1.67-3.98,2.11,1.41-.56,2.53-2.79,3.3-3.38.64-.49,1.38-.45,1.55-.58Z"/>
    <path class="st0" d="M380.07,1160.86c-.13,1.32-4.2.51-4.25-.61l4.25.61Z"/>
    <path class="st0" d="M83.02,910.41c-1.21-.32-1.37-1.3-1.2-2.43,1.21.32,1.37,1.3,1.2,2.43Z"/>
    <path class="st0" d="M619.41,1080.01c.41.21-.36,1.03-1.21.6-.41-.21.36-1.03,1.21-.6Z"/>
    <path class="st0" d="M344.23,899.47c.41.21-.36,1.03-1.21.6-.41-.21.36-1.03,1.21-.6Z"/>
    <path class="st0" d="M583.87,899.47c.39.2.39.41,0,.61v-.61Z"/>
    <path class="st0" d="M694.13,1097.03c1.73,1.34-14.64,12.24-15.85,13.01-6.1,3.88-12.92,8.14-19.98,9.78,4.6-5.03,10.95-9.34,16.68-13.09,2.48-1.62,17.28-11.15,19.15-9.7Z"/>
    <rect class="st0" x="209.48" y="1068.9" width=".4" height="2.14" transform="translate(-694.97 461.35) rotate(-44.98)"/>
    <path class="st0" d="M558.66,349.35v.6c-2.53.3-2.53-.9,0-.6Z"/>
  </g>
</svg>