<?xml version="1.0" encoding="UTF-8"?>
<svg id="Layer_1" xmlns="http://www.w3.org/2000/svg" version="1.1" viewBox="0 0 1733.89 1125">
  <!-- Generator: Adobe Illustrator 30.0.0, SVG Export Plug-In . SVG Version: 2.1.1 Build 123)  -->
  <defs>
    <style>
      .st0 {
        fill: teal;
      }
    </style>
  </defs>
  <g>
    <path d="M1309.48,546.56c4.36,4.53,21.66-21.41,24.3-23.68,3.44-2.95,4.76-.78,6.04,2.55,5.61,14.59,3.14,44.3-9.47,55.09-12.5,10.69-28.43-3.63-25.71-17.47,4.13.69,2.83,6.68,5.37,10.61,4.6,7.12,13.44,8.36,19.36,2,8.31-8.91,9.53-30.62,8.22-42.19-.17-1.47-1.59-8.51-3.93-5.7-3.82,6.44-13.57,22.7-21.76,22.72-2.15,0-5.06-2.13-5.29-1.97s-.07,3.39-4.37,2.9c-9.59-1.08-7.33-25.76-10.69-32-4.62,4.46-8.26,10.18-11.32,15.82-1.87,3.45-5.82,14.57-7.15,16.12-.8.94-7.13,4-8.61,3.91-4.92-.29-7.71-9.06-8.21-13.19s.47-24.55,5.24-25.58c5.2,1.53.44,8.53-.25,12.37-1.09,6.12-1.53,11.69.23,17.69,1.66,5.68,3.61,7.9,8.05,2.21,1.15-3.85,2.86-30.33,4.16-31.21,1.01-.69,4.1-.21,4.66,1.5,1.27,3.89-3.23,9.74-1.36,13.91,4.59-6.04,7.43-13.77,14.6-17.5,9.63-.93,5.08,27.7,10.63,33.03l4.24-2.07c-1.66-3.67.03-8.88,1.55-12.5,2.94-7,18.02-27.6,26.11-27.13,4.71.28,8.08,8.22,4.9,11.6-5.12,5.45-.37-10.34-7.8-6.84-5.99,2.83-25.7,30.85-21.74,34.97Z"/>
    <path d="M1011.86,546.56c4.36,4.53,21.66-21.41,24.3-23.68,4.63-3.97,6.32,2.4,7.25,6.19,3.59,14.62,1.58,40.97-10.68,51.45-12.54,10.72-28.38-3.66-25.71-17.47,4.13.69,2.83,6.68,5.37,10.61,4.6,7.12,13.44,8.36,19.36,2,8.31-8.91,9.53-30.62,8.22-42.19-.17-1.47-1.59-8.51-3.93-5.7-3.82,6.44-13.57,22.7-21.76,22.72-2.15,0-5.06-2.13-5.29-1.97s-.06,3.38-4.37,2.9c-9.37-1.05-7.41-25.79-10.69-32-4.59,4.47-8.29,10.17-11.32,15.82-2.02,3.77-5.21,13.6-6.71,15.59-2.5,3.33-9.97,6.19-13.35,1.89-6.01-7.64-5.36-28.92,1.34-36.22,4.9-1.05.06,10.4-.25,12.36-1,6.3-1.58,11.5.23,17.7,1.66,5.68,3.61,7.9,8.05,2.21,1.15-3.85,2.86-30.33,4.16-31.21,1.01-.69,4.1-.21,4.66,1.5,1.27,3.89-3.23,9.74-1.36,13.91,4.59-6.04,7.43-13.77,14.6-17.5,8.14-.78,6.8,22.38,8.46,28.38,1.5,5.41,1.51,5.37,6.41,2.59-1.77-4.12.35-9.86,2.16-13.83,3.06-6.7,17.7-26.25,25.49-25.8,4.71.28,8.08,8.22,4.9,11.6-5.12,5.45-.37-10.34-7.8-6.84-6.06,2.86-25.74,30.81-21.74,34.97Z"/>
    <path d="M657.04,493.24c-7.05-1.27-10.31-3.69-16.97.97-10.98,7.69-21.2,29.67-19.61,42.9,4.6,38.33,47.47-5.15,44.21-24.8-.8-1.75-1.18-1.6-2.82-1.19-5.52,1.38-15.86,11.28-21.02,12.02-1.81.26-3.04-.09-3.17-2.23,4.01-4.61,9.62-7.64,15.16-10.06s16.28-8.35,16.75,2.36c.28,6.46-3.36,18.56-3.79,26.11-.24,4.25-.41,10.4,0,14.54.38,3.88.7,4.96,4.85,4.36v3.86c-13.63,1.22-9.49-17.63-8.74-26.17-5.68,6.59-9.51,14.72-18.13,18.22-21.1,8.56-29.09-7.77-27.41-26.44,1.21-13.43,13.97-38.79,28.64-41.15,5.54-.89,13.72-.74,12.06,6.72Z"/>
    <path d="M831.55,502.93c.54-3.45-1.73-10.16-5.39-10.69-4.67-.72-6.29,4.38-7.49,8-2.6,7.89-2.27,15.94-3.6,24.02l9.69.49,1.93,5.33c-2.86-.02-2.94-2.95-6.27-2.98-1.79-.02-5.06,1.36-5.84,2.98-1.42,2.93,1.49,16.51,1.54,20.85.05,4.02-.89,4.73-4.92,4.36l-.98-24.24c-7.63,2.44-8.74,7.43-13.07,12.61-17.77,21.31-36.74,6.76-19.9-19.9,2.35-3.72,15.79-21.01,19.73-11.88,4.08,9.44-9.18,28.02-20.68,22.08-5.66,16.2,1.67,20.69,14.55,10.19,7.37-6.01,9.7-14.91,19.88-17.93,1.39-9.74,1.25-36.46,14.62-37.81,11.38-1.15,9.85,18.9,6.21,14.53ZM779.2,531.04c7.18,1.56,14.11-8.69,14.86-14.74.16-1.27,1.1-1.42-.82-2.7-3.08-.47-15.58,15.96-14.03,17.45Z"/>
    <path d="M1185.3,545.48c-.83-11.53,11.57-37.54,25.35-34.4,3.63.83,8.52,3.56,4.29,7.36-2.07.39-5.23-7.64-13.03-1.41-4.31,3.44-12.55,19.72-12.49,25.18.12,11.35,14.57,5.1,19.71.47.61-.55,6.51-9.74,7.28-5.31.71,4.1-14.12,15.37-19.01,15.91-7.77.85-8.18-4.12-10.67-4.56-1.14-.2-2.93.89-4.65.75-7.59-.64-6.01-13.54-6.88-13.58-4.22,6.21-9.23,12.26-15.69,16.31-2.71,1.7-6.23,4.91-9.61,2.21-7.13-5.68,8.7-27.58,13.16-32.59,3.04-3.42,15.11-15.38,19.51-9.76,2.86,3.48-.38,7.53-.59,9.77-.1,1.14.65,2.51.51,3.82-.45,4.13-4.51,18.53-.03,20.47l2.84-.63ZM1179.56,513.6c-8.35,4.05-16.08,14.17-21.14,21.99-1.8,2.79-12.24,19.06-2.16,15.3,4.56-1.7,19.06-19.84,20.86-24.71.63-1.7,2.96-11.89,2.43-12.58Z"/>
    <path d="M736.45,545.48c-.83-11.53,11.57-37.54,25.35-34.4,3.63.83,8.52,3.56,4.29,7.36-2.07.39-5.23-7.64-13.03-1.41-4.98,3.97-18.29,28.45-9.07,31.28,5.01,1.54,12.62-2.33,16.29-5.63.61-.55,6.51-9.74,7.28-5.31.71,4.1-14.12,15.37-19.01,15.91-7.77.85-8.18-4.12-10.67-4.56-1.14-.2-2.93.89-4.65.75-7.59-.64-6.01-13.54-6.88-13.58-2.94,5.24-18.95,23.6-25.3,18.52-7.13-5.7,8.69-27.58,13.16-32.59,3.04-3.42,15.11-15.38,19.51-9.76,2.86,3.48-.38,7.53-.59,9.77-.1,1.14.65,2.51.51,3.82-.45,4.13-4.51,18.53-.03,20.47l2.84-.63ZM730.71,513.6c-8.4,4.06-16.02,14.15-21.14,21.99-1.86,2.85-12.36,19.08-2.16,15.3,4.54-1.68,19.06-19.85,20.86-24.71.63-1.7,2.96-11.89,2.43-12.58Z"/>
    <path d="M1580.69,510.93c4.41,10.99-7.37,28.17-20.12,23.03-5.39,15.47.91,20.84,14.03,10.64,2.83-2.2,9.82-9.87,11.85-12.78.16-.23-.03-3.56.87-5.51,2.55-5.56,13.05-16.27,19.38-16.52,3.2-.12,7.94,1.84,7.18,5.75-9.95-3.68-20.34,4.42-22.37,13.93,5.77,3.41,12.47-.27,18.45,4.05,11.68,8.45-12.13,26.45-20.32,17.42-2.64-2.9-2.29-5.63.51-8.25,2.66-1.29.91,5.28,1.44,5.81,5.2,2.3,23.77-6.17,16.46-12.08-4.46-3.6-15.62.52-21.29-3.43-4.63,24.17-44.37,30.43-28.81-3.11,2.42-5.21,15.81-25.94,22.75-18.95ZM1563.47,531.04c7.18,1.56,14.11-8.69,14.86-14.74.16-1.27,1.1-1.42-.82-2.7-3.08-.47-15.58,15.96-14.03,17.45Z"/>
    <path d="M1409.33,502.93c-1.45-1,.98-8.61-1.12-10.52-6.27-3.95-25.53,13.32-29.43,18.27-5.13,6.5-6.98,9.7,2,12.56,7.08,2.25,24.59,2.94,29.01,8.8,9.92,13.14-18.05,32.91-31.04,20.38-3.77-3.64-4.92-7.61-.92-11.67l2.66,8.47c7.66,6.84,29.58-3.39,26.76-13.61-1.85-6.7-28.96-6.19-35.28-11.32-4.56-3.7-1.41-10.59.97-14.6,5.21-8.8,26.58-26.07,37.11-21.53,7.46,3.21,3.97,18-.72,14.78Z"/>
    <path d="M874.2,547.52c10.57-2.57,22.46-8.09,32.99-2.45l5.78,4.39c-.08-3.19-1.63-6.05-1.92-9.21-.33-3.59.86-24.92,6.28-23.74,3.23,3.05-.55,8.36-1.19,12.36-.83,5.23-1.84,18.28,1.92,22.31,1.84,1.97,3.38-.04,4.54-.31,4.78-1.09-.22,7.55-6.16,3.36-1.37-.97-.99-2.9-2.49-2.82l-.91,3.45-2.97.42c.04-2.44.57-4.16-1.54-5.74-5.55-4.15-20.2-1.4-26.78.19-5.21,1.26-14.17,5.93-17.98,6.35-1.61.18-2.16.07-3.14-1.31-.9-3.08,5.76-5.3,7.76-7.73,8.56-10.42,2.52-38.4,2.96-51.34.48-3.42,3.51-6.45,7.11-6.32,7.08.27,16.84,12.63,9.79,12.6-3.81-.02-7.64-12.98-11.96-7.15-.72,17.43,4.09,35.91-2.09,52.67Z"/>
    <path d="M1114.66,529.14l3.8,1.41c-3.92,14.11-26.36,34.85-40.18,21.82-17.37-16.37,8.99-66.97,29.82-62.79,6.45,1.29,7.69,8.03,2.41,7.38-3.85-.47-4.98-2.81-10.45-1.32-10.42,2.84-23.61,30.24-23.26,40.69,1.04,31,32.75,9.54,37.88-7.18Z"/>
    <path d="M1225.14,536.86l9.31-16.37c1.76-1.56,3.87-3.58,6.46-2.88,8.16,2.2,5.36,31.44,9.9,31.82l3.88-1.91c1.92.01-.18,5.35-4.8,4.88-7.58-.77-7.23-22.63-8.56-28.38-.28-1.21-.18-3-2.15-2.7-4.68.71-10.94,17.94-12.38,22.54-1.31,4.15-.43,11.86-5.54,12.39-2.17-12.17-.55-24.96,1.12-37.16.89-6.49,3.3-23.56,6.37-28.51,1.71-2.77,4.31-1.06,3.97,1.93-.42,3.69-3.49,10.47-4.4,15.08-1.89,9.55-3.24,19.56-3.18,29.28Z"/>
    <path d="M1440.12,510.93c4.41,11.2-7.5,28.15-20.12,23.03-8.7,29.51,18.31,10.88,24.73-1.93,2-.41,1.64.94,1.39,2.36-.51,2.94-3.33,6.94-5.27,9.28-14.75,17.8-34.78,10.57-23.48-13.79,2.42-5.21,15.8-25.93,22.75-18.95ZM1422.9,531.04c7.18,1.56,14.11-8.69,14.86-14.74.16-1.27,1.1-1.42-.82-2.7-3.08-.47-15.58,15.96-14.03,17.45Z"/>
    <path d="M865.16,547.25c-4.41,4.82-9.59,1.35-11.82-3.58l-3.37-11.64c-1.47,5.87-11.74,26.8-19.98,20.44-5.23-4.05.24-23.31,2.03-29.16.8-2.63,2.48-10.87,6.31-8.25.72.49.93,1.02.94,1.88.04,3-5.08,14.59-6.11,19.14-6.46,28.37,10.7,3.54,15.02-6.31,1.91-4.35,2.78-11.35,4.23-14.19,1.16-2.27,4.58-2.87,5.22-.39.37,1.45-1.74,8.78-1.9,11.47-.26,4.61-.31,10.99,1.26,15.29,3.34,9.09,5.71,1.35,7.97,1.71,1.77,1.07,1.37,2.31.19,3.59Z"/>
    <path d="M1135.68,512.85c7.09-1.51,10.4,3.42,10.94,9.96.78,9.42-10.1,33.2-21.58,31.33-13.79-2.25-5.86-31.05,2.29-37.04,1.12-.82,7.13-3.99,8.35-4.25ZM1136.67,515.71c-5.01.81-12.24,13.51-13.79,18.28-1.65,5.07-2.99,12.26,1.08,16.35,8.16,2.78,16.9-16.59,17.71-22.76.56-4.24,1.14-12.87-5-11.87Z"/>
    <path d="M1551.65,513.76c.81,1.42.2,3.73-1.29,4.68-2.36.45-5.37-8.71-14.42.11-4.09,3.98-15.85,25.75-8.36,29.48,5.31,1.93,12.43-1.45,16.44-4.91,1.4-1.21,5.32-7.16,6.36-7.2.76-.03,1.62,1.42.99,2.89-3.09,7.14-16.92,17.69-25.1,13.44-14.13-7.33,4.23-43.65,19.01-41.38.98.15,6.12,2.46,6.37,2.89Z"/>
    <path d="M1510.14,512.63l-.67,2.91c-3.66.31-5.53,4.22-7.24,7.1-3.38,5.69-10.07,26.1-12.93,28.76-.89.83-2.53,1.56-3.38.97-.8-.55-5.29-15.83-6.33-18.4-.72-1.77-11.61-19.85-4.84-18.43l2.28,2.58,11.78,26.49c5.07-10.33,7.75-30.48,21.34-31.98Z"/>
    <path d="M961.44,512.63l-.67,2.91c-3.66.31-5.53,4.22-7.24,7.1-3.38,5.69-10.07,26.1-12.93,28.76-.89.83-2.53,1.56-3.38.97-.8-.55-5.16-15.48-6.35-18.39-.74-1.81-11.57-19.86-4.83-18.45l2.28,2.58,11.78,26.49c5.07-10.33,7.75-30.48,21.34-31.98Z"/>
    <path d="M678.38,524.26l6.38-10.57c2.29-3.16,5.89-5.84,9.81-4.23,5.11,2.11,3.06,8,1.25,6.58l-2.51-3.34c-8.71,3.92-14.65,18.44-14.95,27.61-.09,2.93,3.15,14.97-3.35,13.04-3.22-.96-.56-11.16-.47-14,.15-5.07.16-10.53,0-15.6-.09-2.67-2.76-9.93.55-11.02l3.82.84-.52,10.71Z"/>
    <path d="M1448.2,512.73c1.72-.37,3.98-.42,4.61,1.49l-.82,10.04,6.38-10.57c2.38-5.75,13.64-6.42,13.06.37-.49,5.65-3.56-1.13-4.51-1.36-6.62-1.64-14.77,22.02-14.95,27.61-.15,4.86,3.52,11.3-2.41,13.09l-2.26-1.65c.33-9.32,1.08-18.58.85-28-.09-3.76-2.2-7.13.05-11.01Z"/>
    <path d="M1514.26,551.16c2.61,2.71,6.11-2.25,6.54.75.45,3.12-5.86,4.29-8.68,1.88-6.81-5.81-6.44-30.87.46-37.28,4.91-1.05.07,10.4-.25,12.36-.82,5.15-1.84,18.37,1.92,22.28Z"/>
    <circle cx="1513.34" cy="501.97" r="2.89"/>
    <circle cx="1262.34" cy="501.98" r="2.85"/>
    <circle cx="964.73" cy="501.98" r="2.85"/>
    <circle cx="917.22" cy="501.98" r="2.85"/>
  </g>
  <g>
    <rect class="st0" x="-217.08" y="98.39" width=".75" height="1125"/>
    <path class="st0" d="M1306.06,545.99c4.36,4.53,21.66-21.41,24.3-23.68,3.44-2.95,4.76-.78,6.04,2.55,5.61,14.59,3.14,44.3-9.47,55.09-12.5,10.69-28.43-3.63-25.71-17.47,4.13.69,2.83,6.68,5.37,10.61,4.6,7.12,13.44,8.36,19.36,2,8.31-8.91,9.53-30.62,8.22-42.19-.17-1.47-1.59-8.51-3.93-5.7-3.82,6.44-13.57,22.7-21.76,22.72-2.15,0-5.06-2.13-5.29-1.97s-.07,3.39-4.37,2.9c-9.59-1.08-7.33-25.76-10.69-32-4.62,4.46-8.26,10.18-11.32,15.82-1.87,3.45-5.82,14.57-7.15,16.12-.8.94-7.13,4-8.61,3.91-4.92-.29-7.71-9.06-8.21-13.19s.47-24.55,5.24-25.58c5.2,1.53.44,8.53-.25,12.37-1.09,6.12-1.53,11.69.23,17.69,1.66,5.68,3.61,7.9,8.05,2.21,1.15-3.85,2.86-30.33,4.16-31.21,1.01-.69,4.1-.21,4.66,1.5,1.27,3.89-3.23,9.74-1.36,13.91,4.59-6.04,7.43-13.77,14.6-17.5,9.63-.93,5.08,27.7,10.63,33.03l4.24-2.07c-1.66-3.67.03-8.88,1.55-12.5,2.94-7,18.02-27.6,26.11-27.13,4.71.28,8.08,8.22,4.9,11.6-5.12,5.45-.37-10.34-7.8-6.84-5.99,2.83-25.7,30.85-21.74,34.97Z"/>
    <path class="st0" d="M1008.44,545.99c4.36,4.53,21.66-21.41,24.3-23.68,4.63-3.97,6.32,2.4,7.25,6.19,3.59,14.62,1.58,40.97-10.68,51.45-12.54,10.72-28.38-3.66-25.71-17.47,4.13.69,2.83,6.68,5.37,10.61,4.6,7.12,13.44,8.36,19.36,2,8.31-8.91,9.53-30.62,8.22-42.19-.17-1.47-1.59-8.51-3.93-5.7-3.82,6.44-13.57,22.7-21.76,22.72-2.15,0-5.06-2.13-5.29-1.97s-.06,3.38-4.37,2.9c-9.37-1.05-7.41-25.79-10.69-32-4.59,4.47-8.29,10.17-11.32,15.82-2.02,3.77-5.21,13.6-6.71,15.59-2.5,3.33-9.97,6.19-13.35,1.89-6.01-7.64-5.36-28.92,1.34-36.22,4.9-1.05.06,10.4-.25,12.36-1,6.3-1.58,11.5.23,17.7,1.66,5.68,3.61,7.9,8.05,2.21,1.15-3.85,2.86-30.33,4.16-31.21,1.01-.69,4.1-.21,4.66,1.5,1.27,3.89-3.23,9.74-1.36,13.91,4.59-6.04,7.43-13.77,14.6-17.5,8.14-.78,6.8,22.38,8.46,28.38,1.5,5.41,1.51,5.37,6.41,2.59-1.77-4.12.35-9.86,2.16-13.83,3.06-6.7,17.7-26.25,25.49-25.8,4.71.28,8.08,8.22,4.9,11.6-5.12,5.45-.37-10.34-7.8-6.84-6.06,2.86-25.74,30.81-21.74,34.97Z"/>
    <path class="st0" d="M653.62,492.68c-7.05-1.27-10.31-3.69-16.97.97-10.98,7.69-21.2,29.67-19.61,42.9,4.6,38.33,47.47-5.15,44.21-24.8-.8-1.75-1.18-1.6-2.82-1.19-5.52,1.38-15.86,11.28-21.02,12.02-1.81.26-3.04-.09-3.17-2.23,4.01-4.61,9.62-7.64,15.16-10.06,5.78-2.53,16.28-8.35,16.75,2.36.28,6.46-3.36,18.56-3.79,26.11-.24,4.25-.41,10.4,0,14.54.38,3.88.7,4.96,4.85,4.36v3.86c-13.63,1.22-9.49-17.63-8.74-26.17-5.68,6.59-9.51,14.72-18.13,18.22-21.1,8.56-29.09-7.77-27.41-26.44,1.21-13.43,13.97-38.79,28.64-41.15,5.54-.89,13.72-.74,12.06,6.72Z"/>
    <path class="st0" d="M828.13,502.37c.54-3.45-1.73-10.16-5.39-10.69-4.67-.72-6.29,4.38-7.49,8-2.6,7.89-2.27,15.94-3.6,24.02l9.69.49,1.93,5.33c-2.86-.02-2.94-2.95-6.27-2.98-1.79-.02-5.06,1.36-5.84,2.98-1.42,2.93,1.49,16.51,1.54,20.85.05,4.02-.89,4.73-4.92,4.36l-.98-24.24c-7.63,2.44-8.74,7.43-13.07,12.61-17.77,21.31-36.74,6.76-19.9-19.9,2.35-3.72,15.79-21.01,19.73-11.88,4.08,9.44-9.18,28.02-20.68,22.08-5.66,16.2,1.67,20.69,14.55,10.19,7.37-6.01,9.7-14.91,19.88-17.93,1.39-9.74,1.25-36.46,14.62-37.81,11.38-1.15,9.85,18.9,6.21,14.53ZM775.78,530.48c7.18,1.56,14.11-8.69,14.86-14.74.16-1.27,1.1-1.42-.82-2.7-3.08-.47-15.58,15.96-14.03,17.45Z"/>
    <path class="st0" d="M1181.88,544.92c-.83-11.53,11.57-37.54,25.35-34.4,3.63.83,8.52,3.56,4.29,7.36-2.07.39-5.23-7.64-13.03-1.41-4.31,3.44-12.55,19.72-12.49,25.18.12,11.35,14.57,5.1,19.71.47.61-.55,6.51-9.74,7.28-5.31.71,4.1-14.12,15.37-19.01,15.91-7.77.85-8.18-4.12-10.67-4.56-1.14-.2-2.93.89-4.65.75-7.59-.64-6.01-13.54-6.88-13.58-4.22,6.21-9.23,12.26-15.69,16.31-2.71,1.7-6.23,4.91-9.61,2.21-7.13-5.68,8.7-27.58,13.16-32.59,3.04-3.42,15.11-15.38,19.51-9.76,2.86,3.48-.38,7.53-.59,9.77-.1,1.14.65,2.51.51,3.82-.45,4.13-4.51,18.53-.03,20.47l2.84-.63ZM1176.14,513.04c-8.35,4.05-16.08,14.17-21.14,21.99-1.8,2.79-12.24,19.06-2.16,15.3,4.56-1.7,19.06-19.84,20.86-24.71.63-1.7,2.96-11.89,2.43-12.58Z"/>
    <path class="st0" d="M733.03,544.92c-.83-11.53,11.57-37.54,25.35-34.4,3.63.83,8.52,3.56,4.29,7.36-2.07.39-5.23-7.64-13.03-1.41-4.98,3.97-18.29,28.45-9.07,31.28,5.01,1.54,12.62-2.33,16.29-5.63.61-.55,6.51-9.74,7.28-5.31.71,4.1-14.12,15.37-19.01,15.91-7.77.85-8.18-4.12-10.67-4.56-1.14-.2-2.93.89-4.65.75-7.59-.64-6.01-13.54-6.88-13.58-2.94,5.24-18.95,23.6-25.3,18.52-7.13-5.7,8.69-27.58,13.16-32.59,3.04-3.42,15.11-15.38,19.51-9.76,2.86,3.48-.38,7.53-.59,9.77-.1,1.14.65,2.51.51,3.82-.45,4.13-4.51,18.53-.03,20.47l2.84-.63ZM727.29,513.04c-8.4,4.06-16.02,14.15-21.14,21.99-1.86,2.85-12.36,19.08-2.16,15.3,4.54-1.68,19.06-19.85,20.86-24.71.63-1.7,2.96-11.89,2.43-12.58Z"/>
    <path class="st0" d="M1577.27,510.37c4.41,10.99-7.37,28.17-20.12,23.03-5.39,15.47.91,20.84,14.03,10.64,2.83-2.2,9.82-9.87,11.85-12.78.16-.23-.03-3.56.87-5.51,2.55-5.56,13.05-16.27,19.38-16.52,3.2-.12,7.94,1.84,7.18,5.75-9.95-3.68-20.34,4.42-22.37,13.93,5.77,3.41,12.47-.27,18.45,4.05,11.68,8.45-12.13,26.45-20.32,17.42-2.64-2.9-2.29-5.63.51-8.25,2.66-1.29.91,5.28,1.44,5.81,5.2,2.3,23.77-6.17,16.46-12.08-4.46-3.6-15.62.52-21.29-3.43-4.63,24.17-44.37,30.43-28.81-3.11,2.42-5.21,15.81-25.94,22.75-18.95ZM1560.05,530.48c7.18,1.56,14.11-8.69,14.86-14.74.16-1.27,1.1-1.42-.82-2.7-3.08-.47-15.58,15.96-14.03,17.45Z"/>
    <path class="st0" d="M1405.92,502.37c-1.45-1,.98-8.61-1.12-10.52-6.27-3.95-25.53,13.32-29.43,18.27-5.13,6.5-6.98,9.7,2,12.56,7.08,2.25,24.59,2.94,29.01,8.8,9.92,13.14-18.05,32.91-31.04,20.38-3.77-3.64-4.92-7.61-.92-11.67l2.66,8.47c7.66,6.84,29.58-3.39,26.76-13.61-1.85-6.7-28.96-6.19-35.28-11.32-4.56-3.7-1.41-10.59.97-14.6,5.21-8.8,26.58-26.07,37.11-21.53,7.46,3.21,3.97,18-.72,14.78Z"/>
    <path class="st0" d="M870.78,546.96c10.57-2.57,22.46-8.09,32.99-2.45l5.78,4.39c-.08-3.19-1.63-6.05-1.92-9.21-.33-3.59.86-24.92,6.28-23.74,3.23,3.05-.55,8.36-1.19,12.36-.83,5.23-1.84,18.28,1.92,22.31,1.84,1.97,3.38-.04,4.54-.31,4.78-1.09-.22,7.55-6.16,3.36-1.37-.97-.99-2.9-2.49-2.82l-.91,3.45-2.97.42c.04-2.44.57-4.16-1.54-5.74-5.55-4.15-20.2-1.4-26.78.19-5.21,1.26-14.17,5.93-17.98,6.35-1.61.18-2.16.07-3.14-1.31-.9-3.08,5.76-5.3,7.76-7.73,8.56-10.42,2.52-38.4,2.96-51.34.48-3.42,3.51-6.45,7.11-6.32,7.08.27,16.84,12.63,9.79,12.6-3.81-.02-7.64-12.98-11.96-7.15-.72,17.43,4.09,35.91-2.09,52.67Z"/>
    <path class="st0" d="M1111.24,528.58l3.8,1.41c-3.92,14.11-26.36,34.85-40.18,21.82-17.37-16.37,8.99-66.97,29.82-62.79,6.45,1.29,7.69,8.03,2.41,7.38-3.85-.47-4.98-2.81-10.45-1.32-10.42,2.84-23.61,30.24-23.26,40.69,1.04,31,32.75,9.54,37.88-7.18Z"/>
    <path class="st0" d="M1221.73,536.3l9.31-16.37c1.76-1.56,3.87-3.58,6.46-2.88,8.16,2.2,5.36,31.44,9.9,31.82l3.88-1.91c1.92.01-.18,5.35-4.8,4.88-7.58-.77-7.23-22.63-8.56-28.38-.28-1.21-.18-3-2.15-2.7-4.68.71-10.94,17.94-12.38,22.54-1.31,4.15-.43,11.86-5.54,12.39-2.17-12.17-.55-24.96,1.12-37.16.89-6.49,3.3-23.56,6.37-28.51,1.71-2.77,4.31-1.06,3.97,1.93-.42,3.69-3.49,10.47-4.4,15.08-1.89,9.55-3.24,19.56-3.18,29.28Z"/>
    <path class="st0" d="M1436.7,510.37c4.41,11.2-7.5,28.15-20.12,23.03-8.7,29.51,18.31,10.88,24.73-1.93,2-.41,1.64.94,1.39,2.36-.51,2.94-3.33,6.94-5.27,9.28-14.75,17.8-34.78,10.57-23.48-13.79,2.42-5.21,15.8-25.93,22.75-18.95ZM1419.49,530.48c7.18,1.56,14.11-8.69,14.86-14.74.16-1.27,1.1-1.42-.82-2.7-3.08-.47-15.58,15.96-14.03,17.45Z"/>
    <path class="st0" d="M861.75,546.69c-4.41,4.82-9.59,1.35-11.82-3.58l-3.37-11.64c-1.47,5.87-11.74,26.8-19.98,20.44-5.23-4.05.24-23.31,2.03-29.16.8-2.63,2.48-10.87,6.31-8.25.72.49.93,1.02.94,1.88.04,3-5.08,14.59-6.11,19.14-6.46,28.37,10.7,3.54,15.02-6.31,1.91-4.35,2.78-11.35,4.23-14.19,1.16-2.27,4.58-2.87,5.22-.39.37,1.45-1.74,8.78-1.9,11.47-.26,4.61-.31,10.99,1.26,15.29,3.34,9.09,5.71,1.35,7.97,1.71,1.77,1.07,1.37,2.31.19,3.59Z"/>
    <path class="st0" d="M1132.26,512.29c7.09-1.51,10.4,3.42,10.94,9.96.78,9.42-10.1,33.2-21.58,31.33-13.79-2.25-5.86-31.05,2.29-37.04,1.12-.82,7.13-3.99,8.35-4.25ZM1133.26,515.14c-5.01.81-12.24,13.51-13.79,18.28-1.65,5.07-2.99,12.26,1.08,16.35,8.16,2.78,16.9-16.59,17.71-22.76.56-4.24,1.14-12.87-5-11.87Z"/>
    <path class="st0" d="M1548.23,513.2c.81,1.42.2,3.73-1.29,4.68-2.36.45-5.37-8.71-14.42.11-4.09,3.98-15.85,25.75-8.36,29.48,5.31,1.93,12.43-1.45,16.44-4.91,1.4-1.21,5.32-7.16,6.36-7.2.76-.03,1.62,1.42.99,2.89-3.09,7.14-16.92,17.69-25.1,13.44-14.13-7.33,4.23-43.65,19.01-41.38.98.15,6.12,2.46,6.37,2.89Z"/>
    <path class="st0" d="M1506.73,512.07l-.67,2.91c-3.66.31-5.53,4.22-7.24,7.1-3.38,5.69-10.07,26.1-12.93,28.76-.89.83-2.53,1.56-3.38.97-.8-.55-5.29-15.83-6.33-18.4-.72-1.77-11.61-19.85-4.84-18.43l2.28,2.58,11.78,26.49c5.07-10.33,7.75-30.48,21.34-31.98Z"/>
    <path class="st0" d="M958.02,512.07l-.67,2.91c-3.66.31-5.53,4.22-7.24,7.1-3.38,5.69-10.07,26.1-12.93,28.76-.89.83-2.53,1.56-3.38.97-.8-.55-5.16-15.48-6.35-18.39-.74-1.81-11.57-19.86-4.83-18.45l2.28,2.58,11.78,26.49c5.07-10.33,7.75-30.48,21.34-31.98Z"/>
    <path class="st0" d="M674.96,523.7l6.38-10.57c2.29-3.16,5.89-5.84,9.81-4.23,5.11,2.11,3.06,8,1.25,6.58l-2.51-3.34c-8.71,3.92-14.65,18.44-14.95,27.61-.09,2.93,3.15,14.97-3.35,13.04-3.22-.96-.56-11.16-.47-14,.15-5.07.16-10.53,0-15.6-.09-2.67-2.76-9.93.55-11.02l3.82.84-.52,10.71Z"/>
    <path class="st0" d="M1444.78,512.17c1.72-.37,3.98-.42,4.61,1.49l-.82,10.04,6.38-10.57c2.38-5.75,13.64-6.42,13.06.37-.49,5.65-3.56-1.13-4.51-1.36-6.62-1.64-14.77,22.02-14.95,27.61-.15,4.86,3.52,11.3-2.41,13.09l-2.26-1.65c.33-9.32,1.08-18.58.85-28-.09-3.76-2.2-7.13.05-11.01Z"/>
    <path class="st0" d="M1510.85,550.6c2.61,2.71,6.11-2.25,6.54.75.45,3.12-5.86,4.29-8.68,1.88-6.81-5.81-6.44-30.87.46-37.28,4.91-1.05.07,10.4-.25,12.36-.82,5.15-1.84,18.37,1.92,22.28Z"/>
    <circle class="st0" cx="1509.93" cy="501.41" r="2.89"/>
    <circle class="st0" cx="1258.93" cy="501.42" r="2.85"/>
    <circle class="st0" cx="961.31" cy="501.42" r="2.85"/>
    <circle class="st0" cx="913.81" cy="501.42" r="2.85"/>
  </g>
  <g>
    <path class="st0" d="M360.83,462.44c-16.87,17.08-34.07,33.93-51.84,50.07-5.64,5.12-11.6,9.84-17.08,15.09-5.08,29.81-8.08,60.01-13.14,89.81-.09.56-.11,2.18-.73,2.28l-13.68-91.79c-18.87-16.91-37.24-34.38-55.47-51.98l-12.45-13.08c14.95,8,29.63,16.69,44.6,24.74,11.89,6.39,24.04,12.32,35.89,18.79l1.27.3,40.03-20.7,42.59-23.53Z"/>
    <path class="st0" d="M491.45,463.65c.5.54-5.46,11.83-6.22,13.28-9.5,18.11-21.17,34.92-34.18,50.66-2.87,24.83-6.27,49.62-12.68,73.78l-5.19,17.93c.25-5.43.24-10.87.38-16.3.67-25.12.15-50.18-3.71-75.08-20.62-23.07-43.18-44.23-66.2-64.86,3.65,1.44,7.22,3.48,10.71,5.36,22.25,12,44,24.88,65.44,38.26,16.92-12.02,34.07-24.96,48.44-39.99.38-.39,2.58-3.71,3.2-3.02Z"/>
    <path class="st0" d="M193.24,462.84l-38.39,35.78c-9.46,9.7-19.37,19.07-27.74,29.75-3.72,29.78-4.53,58.75-2.57,88.69.03.46.29,2.23-.41,2.23-8.34-29.89-14.94-60.27-17.46-91.32-15.31-20.31-30.21-41.3-39.61-65.13,7.72,7.9,15.33,15.9,23.7,23.13,8.53,7.37,17.66,14.08,26.75,20.73,1,.1,14.88-9.28,17.1-10.64,19.11-11.8,38.65-22.99,58.64-33.21Z"/>
    <path class="st0" d="M357.22,631.76l-.84,1.37c-13.66,10.93-26.64,22.77-40.36,33.61-5.61,4.44-22.85,15.15-25.45,20.38-.66,1.32-.83,3.04-1.14,4.49-4.19,20.08-6.42,40.99-9.97,61.21l-12.38-65.04c-21.3-17.76-43.44-34.62-64.38-52.81-1-.87-2.45-1.84-3.03-3,.3-.61.97.09,1.34.27,15.65,7.28,31.17,15.96,46.75,23.6,10.26,5.04,20.57,9.99,30.89,14.91l78.57-38.98Z"/>
    <path class="st0" d="M333.5,326.5c.45.47-3.44,5.09-4.03,5.82-11.65,14.51-25.46,27.24-39.57,39.23-4.14,25.78-6.3,52.48-11.18,78.09-.08.45-.08,1.6-.68,1.52-3.4-26.31-7.61-52.52-10.13-78.95-15.53-14.52-31.3-28.93-43.72-46.33,5.04,2.49,9.65,5.92,14.49,8.82,12.99,7.79,26.51,14.63,40.02,21.46l28.54-14.32,26.25-15.35Z"/>
    <path class="st0" d="M485.43,632.16c.17.76-.43.95-.8,1.41-2.22,2.68-5.67,5.75-8.23,8.25-11.54,11.3-23.72,22.3-36.19,32.56-4.79,3.94-10.78,7.73-15.25,11.69-3.91,3.46-8.79,14.5-11.8,19.56-7.89,13.29-19.79,33.11-30.45,43.93-.42.42-.58,1.02-1.37.84,2.79-6.12,6.33-11.86,9.19-17.95,6.64-14.15,11.49-29.21,14.86-44.48-11.97-20.66-27.58-38.77-43.74-56.2.88-.12,1.55.37,2.28.73,6.76,3.34,15.15,9.14,21.64,13.33,12.05,7.78,23.65,16.15,35.02,24.86l34.42-19.3,30.42-19.22Z"/>
    <path class="st0" d="M194.84,631.76c.28.27-2.08,3.01-2.42,3.41-14.51,16.62-29.34,33.09-39.7,52.79,4.59,17.45,10.4,34.65,18.75,50.65,1.49,2.86,4.14,6.39,5.32,9.16.27.63.52,1.09.38,1.83-12.02-13.84-22.61-28.82-32.07-44.52-2.6-4.31-6.95-14.03-9.72-17.22s-10.47-8.28-14.26-11.47c-16.15-13.54-31.96-27.5-46.43-42.82l1.59.02c19.62,13.7,40.26,25.83,61.32,37.19,16.2-12.89,33.1-24.91,50.87-35.57.79-.47,6.04-3.79,6.39-3.45Z"/>
    <path class="st0" d="M432.77,450.37c-.58.06-.65-.95-.81-1.4-8.97-26.28-17.72-52.59-31.17-77-8.14-6.08-16.32-12.11-24.56-18.05-12.15-8.75-26.02-17.16-37.64-26.29-.39-.31-.97-.6-1.07-1.13l64.51,29.65c6.49-6.29,12.64-13.1,17.03-21.05l3.66-9.4c2.32,11.13,2.38,22.36-.6,33.38-1.18,4.38-3.18,8.36-4.6,12.64,8.13,25.48,13.85,51.86,15.25,78.66Z"/>
    <path class="st0" d="M220.57,326.91c-.1.53-.68.82-1.07,1.13-13.07,10.28-28.77,19.65-42.46,29.5-4.3,3.1-16.87,11.2-19.57,14.61-3.02,3.8-8.06,15.94-10.39,20.97-5.49,11.82-10.46,23.88-14.94,36.13l-7.22,21.12c1.7-21.23,5.16-42.29,11.05-62.74,1.06-3.68,4.8-12.57,5.01-15.53.14-1.98-3.61-12.17-4.28-15.36-1.37-6.48-1.98-12.96-1.33-19.58.38-3.86,1.44-7.64,2.01-11.47.76.13.66.85.85,1.36,1,2.69,1.5,5.4,2.7,8.16,3.3,7.62,9.76,15.33,15.96,20.65l63.69-28.97Z"/>
    <path class="st0" d="M375.3,620.49h-28.94l2.81-58.32h29.94c1.01,0,.2,2.37.18,3-.49,18.47-1.9,36.94-4,55.32Z"/>
    <path class="st0" d="M207.3,562.18l3.22,58.32h-28.94c-2.25-19.35-4.05-38.84-4.42-58.32h30.14Z"/>
    <path class="st0" d="M375.3,451.98h-28.74l-6.23-53.09h26.33c.42.24.47.6.59,1.02,1.99,7.06,3.19,16.76,4.37,24.18,1.47,9.25,2.69,18.57,3.68,27.88Z"/>
    <path class="st0" d="M216.55,398.89l-6.03,53.09h-28.94c2.01-17.84,5.02-35.57,8.84-53.09h26.12Z"/>
    <path class="st0" d="M539.29,506.67c.16.14.58.16.79-.26,1.6-3.08,3.74-8.99,4.84-12.39,2.71-8.36,3.85-16.77,2.8-25.55l1.14,5.09c3.69,19.11-2.23,38.12-3.95,57.05-2.71,29.85-3.86,54.56-13.97,83.36-.25.72-.26,1.99-1.31,1.7,1.74-8.22,3.51-16.48,4.75-24.8,3.11-20.84,3.67-41.95,1.99-62.98-10.57-23.59-24.9-44.72-41.71-64.23.66-.12,1.08.31,1.57.63,13.58,9.01,30.21,25.64,40.38,38.42.54.68,2.48,3.82,2.66,3.98Z"/>
    <path class="st0" d="M63.82,464.05l-15.2,20.38c-7.74,11.4-16.38,23.34-21.85,36.05-2.49,5.79-2.92,8.99-3.16,15.33-.84,21.63.26,43.75,4.23,64.98.93,4.97,2.68,10.29,3.39,15.12.06.42.34,1.47-.36,1.36-6.03-20.76-11.63-41.7-13.67-63.34-.79-8.42-.53-17.05-1.21-25.33-.46-5.55-2.4-11.99-3.15-17.76-1.82-14-1.54-27.37,1.56-41.16.67-.11.43.97.42,1.42-.04,1.15-.4,2.12-.44,3.19-.43,11.66,1.56,21.91,6.65,32.39,9.45-12.87,20.01-24.24,32.16-34.58,2.64-2.25,6.28-5.58,9.07-7.42.49-.32.91-.75,1.57-.64Z"/>
    <path class="st0" d="M509.14,562.18c-1.29,19.73-5.13,39.14-9.65,58.32h-18.49c4.97-19.05,7.72-38.67,9.24-58.32h18.89Z"/>
    <path class="st0" d="M68.24,562.18c1.6,19.66,4.75,39.14,9.24,58.32h-17.08c-1.52-4.17-2.61-8.84-3.62-13.27-3.38-14.76-5.62-29.93-6.63-45.05h18.09Z"/>
    <path class="st0" d="M480.2,398.89c6.65,15.2,13.05,30.61,17.48,46.65.57,2.08,1.32,4.32,1.41,6.43h-17.48c-1.9-4.85-2.91-10.21-4.42-15.28-1.22-4.09-2.45-8.24-3.8-12.28-2.9-8.63-6.57-16.97-9.66-25.52h16.48Z"/>
    <path class="st0" d="M60.21,451.98c4.22-18.33,11.45-35.79,19.27-52.8.92-1.16,2.28-.28,3.42-.27,3.65.03,8.65-.46,12.08-.02.47.06.8-.17.58.59-.81,2.74-3.04,6.59-4.19,9.48-5.6,13.99-10.16,28.4-13.88,43.02h-17.28Z"/>
    <path class="st0" d="M447.65,747.58c2.59-3.96,9.8-9.72,13.47-13.67,9.53-10.24,18.18-21.61,25.68-33.42,1.82-2.87,6.26-9.24,7.27-12.03,1.91-5.24,1.95-20.89,1.4-26.75-.97-10.28-4.16-20.07-6.83-29.96.94-.18,1.23,1.01,1.75,1.66,8.59,10.75,16.11,23.4,17.54,37.35,10.28-8.94,19.77-18.77,27.32-30.16-4.38,11.75-12.79,21.79-20.5,31.56-19.95,25.26-41.46,56.38-67.11,75.42Z"/>
    <path class="st0" d="M356.82,713.8c-4.24,13.52-8.67,27.18-15.07,39.82h-18.29l10.25-39.82h23.11Z"/>
    <path class="st0" d="M224.59,713.8l10.85,39.82h-18.29c-6.45-12.75-11.5-26.21-15.88-39.82h23.31Z"/>
    <path class="st0" d="M106.43,740.34l-.4.4c-12.61-11.25-23.46-22.5-33.92-35.84-4.55-5.8-8.57-12.13-13.12-17.84-9.24-11.62-18.03-20.67-25.63-33.88-2.57-4.46-5.21-9.38-6.91-14.19,1.07-.22.69.27,1,.79,1.14,1.94,2.02,4.04,3.25,6.01,6,9.54,14.11,17.31,22.27,24.97,1.14-11.08,4.93-21.32,11.09-30.53l7-9.68c-3.83,15.12-7.95,31.07-6.82,46.85.52,7.25,2.28,10.35,5.86,16.26,10.69,17.67,22.27,31.73,36.34,46.69Z"/>
    <path class="st0" d="M478.19,355.86c-1.89-7.58-5.01-14.98-10.04-20.91.75-.18.95.42,1.41.8,11.29,9.46,16.79,23.69,23.84,36.06,13.14,23.05,24.33,41.35,31.93,67.39.68,2.32,1.56,4.7,1.5,7.14l-8.77-20.78c-5.57-12.27-11.95-24.13-19.2-35.49-3.33-5.23-8.76-14.26-12.81-18.55-3.09-3.27-9.18-7.8-12.89-10.83-14.2-11.64-29.36-22.07-44.8-31.98.4-.51,1.4-.07,1.9.11,9.62,3.51,19.83,10.99,29.17,15.45l18.77,11.58Z"/>
    <path class="st0" d="M133.76,327.31c-.11.53-.67.84-1.08,1.13-16.46,11.88-33.5,21.95-49.17,35.26-8.87,7.54-13.31,14.17-19.61,23.81-7.64,11.69-14.63,23.89-20.52,36.58-2.71,5.85-4.97,13.24-7.89,18.66-.3.56.03.99-1.01.78,3.64-11.53,7.46-23.01,12.39-34.05,6.65-14.91,15.55-28.65,23.57-42.77,4.73-8.32,8.66-15.5,14.87-22.92,1.67-2,7.53-8.93,9.23-10.07.37-.25,1.13-.74,1.42-.18-5.65,5.68-10.97,13.87-12.84,21.75-.13.53.05.78.57.57,1.64-.66,5.96-4.16,7.88-5.39,11.15-7.15,22.71-13.74,34.52-19.75,2.42-1.23,5.04-2.79,7.64-3.41Z"/>
    <path class="st0" d="M326.27,761.66c.24,1.04-.31.7-.76,1.04-8.78,6.49-18.55,12.33-27.5,18.74-2.66,1.91-10.56,7-12.15,9.16-.45.61-.56.91-.8,1.61-1.89,5.57-2.16,12.46-4.01,18.12l-6.22-19.52c-14.09-10.47-28.78-20.1-43.42-29.75l2.69.53,45.74,20.61c14.05-5.96,27.63-13.11,41.73-19,.83-.35,4.16-1.95,4.69-1.53Z"/>
    <path class="st0" d="M276.34,466.17c19.67-2.25,22.86,26.57,3.86,28.8-20.04,2.36-23.29-26.58-3.86-28.8Z"/>
    <path class="st0" d="M275.53,634.67c21.78-2.98,22.36,27.88,1.09,26.05-15.17-1.3-16.56-23.94-1.09-26.05Z"/>
    <path class="st0" d="M456.09,713.8l-7.08,10.01c-2.53,3.74-25.26,29.8-27.29,29.8h-11.05c-.17-.7.29-.8.6-1.21,1.77-2.31,4.83-4.94,6.84-7.23,8.65-9.86,16.37-20.51,23.71-31.38h14.27Z"/>
    <path class="st0" d="M251.91,806.71c0,.82-1.59.32-2.03.21-13.22-3.18-24.52-10.83-36.41-16.65-19.52-9.56-40.07-17.25-58.83-28.4-.44-.26-1.1-.41-1.2-1.01l53.68,21.3c.92-.03,3.08-4.95,3.87-6.15,4.2-6.4,10.94-11.41,17.01-15.95-3.07,8.21-8.53,16.68-7.4,25.89.58,4.67,3.22,5.81,6.66,8.22,7.46,5.21,15.87,10.01,24.64,12.55Z"/>
    <path class="st0" d="M434.29,466.16c14.94-1.91,20.31,26.61,6.23,28.75-15.24,2.32-20.45-26.93-6.23-28.75Z"/>
    <path class="st0" d="M149.43,753.62h-10.65c-10.5-9.37-19.72-20.04-28.49-31.01l-6.27-8.81h13.87c6.57,9.77,13.58,19.26,21.3,28.16,3.02,3.49,6.91,6.87,9.65,10.45.31.41.77.51.6,1.21Z"/>
    <path class="st0" d="M403.44,762.47c.77.61-.56.86-.79,1-15.02,8.82-33.04,15.75-48.79,23.59-17.99,8.96-35.16,20.64-55.72,22.86l10.35-2.7c7.71-2.21,14.9-5.77,21.52-10.24,1.58-1.06,7.41-5.09,8.08-6.39,1.93-3.73,1.09-12.28-.16-16.27-1.58-5.08-4.61-9.49-6.84-14.26,7.96,5.43,14.95,11.23,20.26,19.34.53.81,1.01,2.74,2.01,2.77l50.06-19.7Z"/>
    <path class="st0" d="M120.39,466.16c15.44-2.37,14.09,27.26-.94,28.81-14.98,1.55-12.99-26.67.94-28.81Z"/>
    <path class="st0" d="M325.06,288.29c3.72,5.89,7.61,11.68,10.92,17.83,2.17,4.03,4.45,8.5,5.96,12.74h-18.29l-12.26-30.57h13.66Z"/>
    <path class="st0" d="M248.7,288.29c-1.78,3.84-3.95,7.53-5.7,11.39-2.84,6.29-4.95,12.94-7.77,19.17h-18.29c4.8-10.87,11.38-20.82,18.09-30.57h13.66Z"/>
    <path class="st0" d="M428.25,634.67c10.21-1.62,11.44,8.89,8.15,16.2-2.61,5.79-11.01,13.34-17.3,8.45-8.16-6.35-.26-23.15,9.15-24.65Z"/>
    <path class="st0" d="M125.21,634.66c13.3-2.72,22.56,20.67,12.44,25.31-7.96,3.65-16.65-6.75-17.51-13.99-.47-3.98.28-10.35,5.07-11.33Z"/>
    <path class="st0" d="M289.7,262.15c5.73,3.84-1.89,10.24-4.75,13.55-.94,13.44-2.64,26.81-4.98,40.06-.12.69-.12,2.42-.73,2.69-.66-8.12-2.17-16.21-2.81-24.33-.39-4.95-.46-9.94-.83-14.86-.08-1.04.34-2.29.21-3.08-.22-1.34-4.22-5.28-5.17-7.23-1.42-2.91-1.33-5.22,1.77-6.8-1.32,2.54,7.6,7.66,8.48,7.46,2.88-2.22,8.46-3.35,8.81-7.46Z"/>
    <path class="st0" d="M277.13,328.21c14.63-2.3,17.41,18.09,3.08,19.57-14.23,1.47-15.48-17.62-3.08-19.57Z"/>
    <path class="st0" d="M422.33,318.86h-11.45c-8.42-8.24-17.12-16.23-26.6-23.25-3.34-2.48-7.06-4.67-10.18-7.31h8.24c.64,0,9.44,6.01,10.78,6.91,10.4,6.97,20.19,15,29.21,23.65Z"/>
    <path class="st0" d="M322.25,269.39c-1.8-1.96-4.18-3.81-6.83-4.42-.11-.63.57-.44,1.01-.41,1.78.1,5.38,1.42,7.13,2.12,7.77,3.09,22.89,14.89,29.64,20.61,7.44,6.3,19.52,19.31,24.05,27.82.3.57.57,1.08.46,1.75-12.84-13.94-26.35-27.93-42.47-38.13-5.65-3.58-11.47-5.65-17.71-8.02-7.44-2.83-15.21-5.71-23.01-7.35-.1-.69.95-.43,1.4-.39.96.08,2.06.4,3.03.59,7.83,1.59,15.48,4.22,23.31,5.83Z"/>
    <path class="st0" d="M187.21,288.29l-10.58,7.31c-7.16,5.36-14.19,10.96-20.78,17.01-.94.86-5.78,6.24-6.22,6.24h-11.45l9.46-8.44c6.82-5.41,13.67-10.85,20.96-15.62,1.31-.85,9.76-6.51,10.37-6.51h8.24Z"/>
    <path class="st0" d="M262.37,264.17c-.13.76-.85.66-1.36.85-6.32,2.37-13.2,4.07-19.64,6.49-21.86,8.22-38.8,23.97-54.97,40.31-1,1.01-1.46,2.83-3.2,2.62,8.65-12.61,18.99-23.74,31.39-32.73,8-5.8,20.4-15.29,30-17.03.21-.04,2.09-.46,1.5.3-2.43,1.05-4.9,2.14-6.63,4.22-.06.31.36.24.6.2,5.49-.79,12.16-3.48,17.88-4.63,1.46-.29,2.91-.72,4.42-.6Z"/>
    <path class="st0" d="M384.43,328.2c4.97-1.13,11.02,3.53,13.99,7.15,10.26,12.52-1.81,16.76-11.26,6.85-2.39-2.51-8.62-12.65-2.72-13.99Z"/>
    <path class="st0" d="M171.43,328.21c4.97-.77,6.41,1.89,5.12,6.33-1.42,4.89-7.15,10.83-11.97,12.55-6.64,2.37-9.26-1.21-6.6-7.41,1.83-4.26,8.81-10.75,13.45-11.47Z"/>
    <path class="st0" d="M399.02,781.76c9.68-3.87,19.32-8.02,28.34-13.27l-.22.99c-11.75,6.91-23.94,12.89-36.57,18.1-13.4,5.53-27.12,10.44-40.98,14.69-.19-1.11.23-.68.88-.91,12.9-4.53,24.78-7.77,36.22-15.65,9.63-6.64,18.1-14.72,22.79-25.66.69-.08.44,1.39.41,1.82-.57,8.59-5,14.14-10.87,19.89Z"/>
    <path class="st0" d="M532.34,466.12c2.01-.54,4.05,2.69,4.86,4.23,2.7,5.14,5.45,17.14,3.37,22.54-2.38,6.18-6.61-2.44-7.63-5.01-1.81-4.57-4.31-15.72-2.19-20.1.26-.54,1.01-1.51,1.58-1.67Z"/>
    <path class="st0" d="M219.76,803.49c0,.83-1.57.3-2.03.22-4.34-.81-10.05-2.75-14.35-4.14-23.35-7.53-46.66-18.12-68.02-30.07l27.73,12.26c-3.3-3.79-7.34-6.83-9.71-11.39-1.36-2.62-2.59-6.36-2.76-9.31-.03-.44-.26-1.52.41-1.41,7.02,13.9,18.92,24.97,33.09,31.44,11.26,5.14,23.75,9,35.64,12.4Z"/>
    <path class="st0" d="M29.15,466.57c3.43,3.14-.62,19.82-2.63,23.89-1.01,2.03-3.85,6.78-5.78,3.22-2.11-3.87.04-15.26,1.5-19.57.63-1.85,3.93-10.28,6.91-7.55Z"/>
    <path class="st0" d="M277.94,762.17c5.57-.79,10.51,2.46,9.71,8.51-.94,7.09-10.79,8.53-14.61,3.02-3.32-4.79-.88-10.71,4.9-11.53Z"/>
    <path class="st0" d="M523.5,634.65c4.23-.92,1.9,6.86,1.29,8.95-1.15,3.94-6.31,14.79-9.87,16.66-5,2.62-2.99-5.18-2.36-7.59,1.04-3.96,6.79-17.12,10.94-18.03Z"/>
    <path class="st0" d="M44.67,658.96c-4.17-4-10.43-17.72-9.39-23.39.28-1.54,1.88-1.12,2.96-.55,4.22,2.21,11.98,19.55,10.94,24.09-.69,3.02-3.03,1.27-4.51-.16Z"/>
    <path class="st0" d="M339.53,267.38l-1.6-.8c1.36-.01,2.8.15,4.12.43,14.88,3.17,31.7,10.26,45.86,16.92,13.61,6.4,34.4,17.7,45.15,28.02.41.39,1.14.4.92,1.28l-18.28-12.47c-28.88-18.92-61.72-30.88-95.86-36.19.02-.7-.27-.84.51-.71,6.41,1.07,12.79,2.38,19.19,3.53ZM341.14,267.39c-1.67-.2-1.67.59,0,.39v-.39Z"/>
    <path class="st0" d="M374.8,762.56c2.36,2.36-3.56,8.1-5.34,9.55-2.14,1.74-8.14,5.39-10.82,5.22-4.84-.31.26-7.06,1.78-8.64,2.2-2.29,11.46-9.06,14.38-6.13Z"/>
    <path class="st0" d="M203.18,776.84c-1.71,1.46-7.11-1.38-8.86-2.39-2.61-1.5-11.87-8.37-9.16-11.83,2.15-2.74,10.29,2.61,12.28,4.27,1.55,1.3,8.09,7.94,5.74,9.94Z"/>
    <path class="st0" d="M247.09,263.36l-32.64,6.95c-23.96,6.35-46.6,17.27-67.81,29.88l-10.88,7c-.27-1.04.37-.71.75-1.04,13.53-11.89,40.41-24.31,57.42-30.62,6.73-2.5,16.86-6.37,23.71-7.65.57-.11,1.13-.14,1.71-.09l-.65.76c9.41-1.89,18.79-4.35,28.38-5.19Z"/>
    <path class="st0" d="M451.67,328.11c1.18-.2,1.97.39,2.93.88,4.36,2.25,15.7,12.79,17.25,17.33.67,1.97-.89,1.63-2.24,1.02-3.6-1.62-16.35-13.75-17.64-17.34-.23-.64-.41-1.2-.31-1.9Z"/>
    <path class="st0" d="M110.04,328.11c1.13,1.03-8.71,11.41-9.83,12.48-1.9,1.8-6.07,5.47-8.27,6.6-1.73.89-2.89,1.34-2.2-.99,1.15-3.87,14.76-16.74,18.69-17.89.54-.16,1.05-.26,1.62-.19Z"/>
    <path class="st0" d="M154.65,776.94c-4.67-.91-9.62-4.08-13.63-6.67-2.33-1.5-5.22-3.37-7.27-5.19-.83-.73-2.21-1.88-2.4-3.02.83-.73,9.85,5,11.22,5.86,4.13,2.6,8.66,5.55,12.09,9.01Z"/>
    <path class="st0" d="M261.36,801.47c.26.07,3.26,3.02,4.04,3.6,3.31,2.46,6.65,4.9,10.83,5.65.66.54-.48.43-.81.42-7.13-.34-16.48-5.13-21.89-9.67,2.07.37,6.05-.51,7.84,0Z"/>
    <path class="st0" d="M307.78,801.47c-5.04,4.34-13.89,9.35-20.69,9.67-.33.02-1.47.12-.81-.42,2.72-.53,5.34-2.09,7.56-3.69,1.19-.86,5.68-5.56,6.1-5.56h7.84Z"/>
    <path class="st0" d="M342.75,801.48l-9.16,3.1c-10.16,2.33-19.55,5.55-30.03,6.14-1.27.07-2.55-.03-3.81,0l18.81-3.49c3.09-.75,6.16-1.58,9.22-2.43,5.04-1.4,9.62-3.99,14.96-3.32Z"/>
    <path class="st0" d="M263.17,810.33l-3.81.39-14.67-1.61c-.21-.87,1.23.11,1.2-.8l-3.21.39.8-.8-13.35-2.93-10.76-3.5c1.63.07,3.3-.16,4.93.09,4.99.78,12.44,4.04,17.98,5.34,6.85,1.61,13.89,2.85,20.9,3.42Z"/>
    <path class="st0" d="M279.93,262.24c3.76-1.13,5.17,3.49,1.74,4.57-3.93,1.24-4.6-3.71-1.74-4.57Z"/>
    <path class="st0" d="M316.22,266.18c1.39,1.43-3.5.13-3.87.05l-12.61-4.07c4.29.37,9.12,1.25,13.17,2.7.5.18,3.18,1.2,3.3,1.33Z"/>
    <path class="st0" d="M245.08,266.97c1.24-1.48,3.8-2.06,5.63-2.61,3.89-1.16,8.03-1.89,12.05-2.42l-17.68,5.03Z"/>
    <path class="st0" d="M106.02,740.75l.4-.4c.9.96,2.22,1.61,2.8,3.02-1.54-.04-2.31-1.82-3.21-2.62Z"/>
    <path class="st0" d="M437.2,314.85c.23.26.07,1.08-.59.79-.2-.08-2.64-2.01-2.21-2.41.12-.11,2.7,1.49,2.81,1.61Z"/>
    <path class="st0" d="M447.65,747.58c-.17.25-.03.69-.58,1.22-.5.48-1.92,1.11-2.63,1.4.93-.37,1.67-1.84,2.18-2.24.42-.33.91-.3,1.02-.38Z"/>
    <path class="st0" d="M222.98,804.29c-.09.87-2.78.34-2.81-.4l2.81.4Z"/>
    <path class="st0" d="M26.44,638.59c-.8-.22-.9-.86-.8-1.61.8.22.9.86.8,1.61Z"/>
    <path class="st0" d="M381.33,750.8c.27.14-.24.68-.8.39-.27-.14.24-.68.8-.39Z"/>
    <path class="st0" d="M199.26,631.36c.27.14-.24.68-.8.39-.27-.14.24-.68.8-.39Z"/>
    <path class="st0" d="M357.82,631.35c.26.13.26.27,0,.4v-.4Z"/>
    <path class="st0" d="M430.77,762.07c1.14.88-9.68,8.1-10.48,8.61-4.04,2.57-8.55,5.38-13.22,6.47,3.04-3.33,7.24-6.18,11.03-8.66,1.64-1.07,11.43-7.38,12.67-6.42Z"/>
    <rect class="st0" x="110.11" y="743.46" width=".27" height="1.42" transform="translate(-493.76 295.71) rotate(-44.98)"/>
    <path class="st0" d="M341.14,267.39v.39c-1.67.2-1.67-.59,0-.39Z"/>
  </g>
</svg>